<svg style="display: none;" aria-hidden="true" xmlns="http://www.w3.org/2000/svg" xmlns:xlink="http://www.w3.org/1999/xlink"><symbol viewBox="0 0 124 51" fill="none" id="svg-apple-pay" xmlns="http://www.w3.org/2000/svg">
<path d="M22.5299 6.52306C21.0857 8.23205 18.775 9.57999 16.4642 9.38742C16.1754 7.07667 17.3067 4.6215 18.6305 3.10507C20.0747 1.34794 22.6021 0.0962813 24.6481 0C24.8888 2.40703 23.9501 4.76592 22.5299 6.52306ZM24.624 9.84476C21.2783 9.6522 18.4139 11.7463 16.8253 11.7463C15.2125 11.7463 12.7814 9.94104 10.1337 9.98918C6.69165 10.0373 3.4903 11.987 1.73317 15.0921C-1.87738 21.3022 0.794424 30.4971 4.28462 35.5519C5.99361 38.0552 8.03959 40.7992 10.7355 40.7029C13.2869 40.6066 14.2979 39.0421 17.3789 39.0421C20.4839 39.0421 21.3745 40.7029 24.0704 40.6548C26.8626 40.6066 28.6197 38.1515 30.3287 35.6481C32.2784 32.8078 33.0727 30.0398 33.1209 29.8953C33.0727 29.8472 27.7291 27.8012 27.681 21.6392C27.6328 16.4882 31.8933 14.033 32.0858 13.8886C29.6788 10.3262 25.9238 9.94104 24.624 9.84476ZM43.9525 2.86437V40.39H49.7775V27.5605H57.8411C65.2066 27.5605 70.3817 22.5057 70.3817 15.1884C70.3817 7.87099 65.3029 2.86437 58.0336 2.86437H43.9525ZM49.7775 7.77471H56.4931C61.5479 7.77471 64.4363 10.4706 64.4363 15.2124C64.4363 19.9543 61.5479 22.6742 56.4691 22.6742H49.7775V7.77471ZM81.0208 40.6788C84.6795 40.6788 88.0734 38.8254 89.6139 35.8888H89.7342V40.39H95.126V21.7114C95.126 16.2956 90.7933 12.8054 84.1259 12.8054C77.9398 12.8054 73.3664 16.3437 73.1979 21.2059H78.4453C78.8785 18.8952 81.0208 17.3788 83.9574 17.3788C87.5198 17.3788 89.5176 19.0396 89.5176 22.0966V24.1666L82.2484 24.5999C75.4846 25.0091 71.8259 27.7771 71.8259 32.5912C71.8259 37.4534 75.605 40.6788 81.0208 40.6788ZM82.5854 36.2258C79.4803 36.2258 77.5065 34.7335 77.5065 32.4468C77.5065 30.0879 79.4081 28.7159 83.0427 28.4993L89.5176 28.0901V30.2082C89.5176 33.7225 86.5329 36.2258 82.5854 36.2258ZM102.323 50.5958C108.004 50.5958 110.675 48.4295 113.01 41.8583L123.24 13.1665H117.319L110.459 35.3352H110.338L103.478 13.1665H97.3886L107.257 40.4863L106.728 42.1471C105.837 44.9634 104.393 46.0465 101.818 46.0465C101.36 46.0465 100.47 45.9984 100.109 45.9502V50.4514C100.446 50.5477 101.89 50.5958 102.323 50.5958Z" fill="black"/>
</symbol><symbol viewBox="0 0 32 32" fill="none" id="svg-arrow" xmlns="http://www.w3.org/2000/svg">
<path d="M14.9999 26.6668V9.1335L6.73325 17.4002L5.33325 16.0002L15.9999 5.3335L26.6666 16.0002L25.2666 17.4002L16.9999 9.1335V26.6668H14.9999Z" fill="white"/>
</symbol><symbol viewBox="0 0 15 15" fill="none" id="svg-close" xmlns="http://www.w3.org/2000/svg">
<path d="M1.48437 14.6094L0.390625 13.5156L6.40625 7.5L0.390625 1.48437L1.48437 0.390625L7.5 6.40625L13.5156 0.390625L14.6094 1.48437L8.59375 7.5L14.6094 13.5156L13.5156 14.6094L7.5 8.59375L1.48437 14.6094Z" fill="white"/>
</symbol><symbol viewBox="0 0 18 30" fill="none" id="svg-facebook" xmlns="http://www.w3.org/2000/svg">
<path d="M16.0193 16.8737L16.8742 11.4469H11.6082V7.91952C11.6082 6.43563 12.3434 4.98566 14.6943 4.98566H17.1221V0.364407C15.7083 0.139145 14.2796 0.0172791 12.8477 -0.000205994C8.51348 -0.000205994 5.68383 2.60296 5.68383 7.30901V11.4469H0.879395V16.8737H5.68383V29.9998H11.6082V16.8737H16.0193Z" fill="#337FFF"/>
</symbol><symbol viewBox="0 0 125 50" fill="none" id="svg-google-pay" xmlns="http://www.w3.org/2000/svg">
<g clip-path="url(#eclip0_104_1882)">
<path d="M59.1211 24.4268V39.0834H54.5049V2.88805H66.7477C68.2091 2.8573 69.662 3.11837 71.0227 3.65619C72.3834 4.194 73.6248 4.99791 74.6755 6.02154C75.7367 6.98301 76.5812 8.16216 77.1524 9.47972C77.7236 10.7973 78.0082 12.2228 77.987 13.6603C78.0174 15.1055 77.7372 16.5403 77.1656 17.8663C76.594 19.1922 75.7446 20.378 74.6755 21.3424C72.5346 23.3987 69.8921 24.4258 66.7477 24.4239H59.1211V24.4268ZM59.1211 7.34424V19.9793H66.8624C67.7111 20.0046 68.5557 19.8512 69.3422 19.529C70.1286 19.2067 70.8397 18.7227 71.4298 18.1078C72.0169 17.5329 72.4835 16.8453 72.8022 16.0856C73.1208 15.3259 73.285 14.5096 73.285 13.6849C73.285 12.8601 73.1208 12.0438 72.8022 11.2841C72.4835 10.5244 72.0169 9.83677 71.4298 9.26188C70.8471 8.63404 70.1385 8.13814 69.3511 7.80704C68.5637 7.47594 67.7154 7.31721 66.8624 7.34135H59.1211V7.34424Z" fill="#5F6368"/>
<path d="M88.6242 13.5101C92.0362 13.5101 94.7294 14.4285 96.7039 16.2653C98.6784 18.1021 99.6647 20.6204 99.6628 23.8203V39.0834H95.2474V35.6467H95.0467C93.1352 38.4769 90.593 39.892 87.42 39.892C84.7115 39.892 82.4455 39.0834 80.622 37.4661C79.7468 36.7238 79.0472 35.7942 78.574 34.745C78.1008 33.6958 77.866 32.5535 77.8867 31.4013C77.8867 28.8387 78.8481 26.8007 80.7711 25.2874C82.694 23.7741 85.261 23.0155 88.4723 23.0117C91.2133 23.0117 93.4707 23.5171 95.2445 24.5279V23.4651C95.2498 22.6796 95.0814 21.9028 94.7516 21.191C94.4218 20.4792 93.9389 19.8502 93.3379 19.3497C92.1172 18.2403 90.5263 17.635 88.8823 17.6544C86.3037 17.6544 84.2633 18.7499 82.7609 20.941L78.6952 18.362C80.9316 15.1274 84.2413 13.5101 88.6242 13.5101ZM82.6519 31.5024C82.6488 32.0941 82.7862 32.6781 83.0525 33.2056C83.3188 33.733 83.7064 34.1888 84.183 34.5348C85.2039 35.3437 86.4711 35.7722 87.7698 35.7478C89.7178 35.7445 91.585 34.9635 92.9623 33.576C94.4914 32.1262 95.256 30.4252 95.256 28.4729C93.8167 27.3177 91.8097 26.7401 89.2349 26.7401C87.3598 26.7401 85.7962 27.1954 84.5442 28.1061C83.2798 29.0303 82.6519 30.1537 82.6519 31.5024Z" fill="#5F6368"/>
<path d="M125.009 14.3187L109.595 50H104.829L110.549 37.5152L100.414 14.3187H105.432L112.757 32.1088H112.858L119.982 14.3187H125.009Z" fill="#5F6368"/>
<path d="M40.4673 21.2672C40.469 19.8502 40.3501 18.4357 40.1117 17.0392H20.6436V25.0476H31.7941C31.5659 26.3267 31.083 27.546 30.3744 28.632C29.6658 29.718 28.7462 30.6482 27.6711 31.3666V36.565H34.3258C38.2223 32.9463 40.4673 27.5948 40.4673 21.2672Z" fill="#4285F4"/>
<path d="M20.6436 41.5873C26.2145 41.5873 30.9052 39.7447 34.3258 36.5679L27.6711 31.3695C25.8189 32.6345 23.4334 33.3565 20.6436 33.3565C15.2591 33.3565 10.6888 29.7002 9.05453 24.7733H2.19913V30.1306C3.91733 33.5744 6.552 36.4695 9.809 38.4926C13.066 40.5157 16.8171 41.5871 20.6436 41.5873Z" fill="#34A853"/>
<path d="M9.05453 24.7732C8.19054 22.1915 8.19054 19.3957 9.05453 16.8139V11.4567H2.19912C0.753715 14.3538 0.000946045 17.5512 0.000946045 20.7936C0.000946045 24.0359 0.753715 27.2334 2.19912 30.1305L9.05453 24.7732Z" fill="#FBBC04"/>
<path d="M20.6436 8.23083C23.5876 8.18238 26.4323 9.30279 28.5628 11.3499L34.4548 5.41503C30.7186 1.88033 25.769 -0.0602773 20.6436 2.14826e-05C16.8171 0.000197146 13.066 1.07163 9.809 3.0947C6.552 5.11777 3.91733 8.01285 2.19913 11.4567L9.05453 16.814C10.6888 11.887 15.2591 8.23083 20.6436 8.23083Z" fill="#EA4335"/>
</g>
<defs>
<clipPath id="eclip0_104_1882">
<rect width="125" height="50" fill="white"/>
</clipPath>
</defs>
</symbol><symbol viewBox="0 0 34 34" fill="none" id="svg-instagram" xmlns="http://www.w3.org/2000/svg">
<path d="M11.5379 16.9999C11.5379 13.9841 13.9835 11.5387 17.0011 11.5387C20.0187 11.5387 22.4656 13.9841 22.4656 16.9999C22.4656 20.0157 20.0187 22.4611 17.0011 22.4611C13.9835 22.4611 11.5379 20.0157 11.5379 16.9999ZM8.58389 16.9999C8.58389 21.6459 12.3523 25.4121 17.0011 25.4121C21.6499 25.4121 25.4183 21.6459 25.4183 16.9999C25.4183 12.3539 21.6499 8.58775 17.0011 8.58775C12.3523 8.58775 8.58389 12.3539 8.58389 16.9999ZM23.7845 8.25421C23.7843 8.64302 23.8995 9.02315 24.1155 9.34653C24.3315 9.6699 24.6387 9.922 24.998 10.0709C25.3574 10.2199 25.7529 10.259 26.1345 10.1833C26.5161 10.1076 26.8667 9.92046 27.1419 9.64564C27.4171 9.37082 27.6046 9.02061 27.6806 8.63929C27.7567 8.25798 27.7179 7.86269 27.5691 7.50341C27.4204 7.14413 27.1684 6.837 26.845 6.62086C26.5216 6.40471 26.1413 6.28927 25.7523 6.28911H25.7515C25.23 6.28935 24.73 6.49644 24.3611 6.86489C23.9923 7.23335 23.7849 7.73303 23.7845 8.25421ZM10.3786 30.3348C8.78047 30.262 7.91181 29.996 7.33454 29.7712C6.56922 29.4734 6.02317 29.1188 5.44905 28.5458C4.87493 27.9728 4.51954 27.4276 4.22291 26.6628C3.99788 26.0861 3.73167 25.2177 3.65902 23.6205C3.57955 21.8937 3.56368 21.3749 3.56368 17C3.56368 12.6252 3.58086 12.1079 3.65902 10.3796C3.7318 8.78238 3.99998 7.91568 4.22291 7.33732C4.52085 6.57246 4.87571 6.02673 5.44905 5.45295C6.02238 4.87918 6.56791 4.52401 7.33454 4.22755C7.91155 4.00265 8.78047 3.7366 10.3786 3.664C12.1065 3.58458 12.6256 3.56872 17.0011 3.56872C21.3766 3.56872 21.8962 3.58589 23.6255 3.664C25.2237 3.73674 26.0909 4.00475 26.6696 4.22755C27.4349 4.52401 27.981 4.87996 28.5551 5.45295C29.1292 6.02594 29.4833 6.57246 29.7812 7.33732C30.0063 7.91398 30.2725 8.78238 30.3451 10.3796C30.4246 12.1079 30.4405 12.6252 30.4405 17C30.4405 21.3749 30.4246 21.8922 30.3451 23.6205C30.2724 25.2177 30.0048 26.0858 29.7812 26.6628C29.4833 27.4276 29.1284 27.9733 28.5551 28.5458C27.9818 29.1183 27.4349 29.4734 26.6696 29.7712C26.0926 29.9961 25.2237 30.2622 23.6255 30.3348C21.8976 30.4142 21.3786 30.43 17.0011 30.43C12.6236 30.43 12.106 30.4142 10.3786 30.3348ZM10.2429 0.716742C8.49787 0.796164 7.30543 1.0727 6.26407 1.47767C5.18559 1.89588 4.27261 2.45694 3.36029 3.36728C2.44796 4.27762 1.888 5.19149 1.46954 6.26932C1.06433 7.31071 0.787627 8.50178 0.708158 10.2458C0.627377 11.9925 0.608887 12.551 0.608887 16.9999C0.608887 21.4488 0.627377 22.0073 0.708158 23.754C0.787627 25.4982 1.06433 26.6891 1.46954 27.7305C1.888 28.8077 2.44809 29.7226 3.36029 30.6325C4.27248 31.5425 5.18559 32.1028 6.26407 32.5221C7.3074 32.9271 8.49787 33.2036 10.2429 33.2831C11.9916 33.3625 12.5495 33.3823 17.0011 33.3823C21.4527 33.3823 22.0115 33.3638 23.7593 33.2831C25.5045 33.2036 26.6961 32.9271 27.7381 32.5221C28.8159 32.1028 29.7296 31.5429 30.6419 30.6325C31.5542 29.7222 32.113 28.8077 32.5326 27.7305C32.9379 26.6891 33.2159 25.498 33.294 23.754C33.3735 22.006 33.392 21.4488 33.392 16.9999C33.392 12.551 33.3735 11.9925 33.294 10.2458C33.2146 8.50165 32.9379 7.31006 32.5326 6.26932C32.113 5.19215 31.5528 4.27906 30.6419 3.36728C29.731 2.4555 28.8159 1.89588 27.7394 1.47767C26.6961 1.0727 25.5043 0.794854 23.7606 0.716742C22.0128 0.637321 21.454 0.617531 17.0024 0.617531C12.5508 0.617531 11.9916 0.63601 10.2429 0.716742Z" fill="url(#fpaint0_radial_302_380)"/>
<path d="M11.5379 16.9999C11.5379 13.9841 13.9835 11.5387 17.0011 11.5387C20.0187 11.5387 22.4656 13.9841 22.4656 16.9999C22.4656 20.0157 20.0187 22.4611 17.0011 22.4611C13.9835 22.4611 11.5379 20.0157 11.5379 16.9999ZM8.58389 16.9999C8.58389 21.6459 12.3523 25.4121 17.0011 25.4121C21.6499 25.4121 25.4183 21.6459 25.4183 16.9999C25.4183 12.3539 21.6499 8.58775 17.0011 8.58775C12.3523 8.58775 8.58389 12.3539 8.58389 16.9999ZM23.7845 8.25421C23.7843 8.64302 23.8995 9.02315 24.1155 9.34653C24.3315 9.6699 24.6387 9.922 24.998 10.0709C25.3574 10.2199 25.7529 10.259 26.1345 10.1833C26.5161 10.1076 26.8667 9.92046 27.1419 9.64564C27.4171 9.37082 27.6046 9.02061 27.6806 8.63929C27.7567 8.25798 27.7179 7.86269 27.5691 7.50341C27.4204 7.14413 27.1684 6.837 26.845 6.62086C26.5216 6.40471 26.1413 6.28927 25.7523 6.28911H25.7515C25.23 6.28935 24.73 6.49644 24.3611 6.86489C23.9923 7.23335 23.7849 7.73303 23.7845 8.25421ZM10.3786 30.3348C8.78047 30.262 7.91181 29.996 7.33454 29.7712C6.56922 29.4734 6.02317 29.1188 5.44905 28.5458C4.87493 27.9728 4.51954 27.4276 4.22291 26.6628C3.99788 26.0861 3.73167 25.2177 3.65902 23.6205C3.57955 21.8937 3.56368 21.3749 3.56368 17C3.56368 12.6252 3.58086 12.1079 3.65902 10.3796C3.7318 8.78238 3.99998 7.91568 4.22291 7.33732C4.52085 6.57246 4.87571 6.02673 5.44905 5.45295C6.02238 4.87918 6.56791 4.52401 7.33454 4.22755C7.91155 4.00265 8.78047 3.7366 10.3786 3.664C12.1065 3.58458 12.6256 3.56872 17.0011 3.56872C21.3766 3.56872 21.8962 3.58589 23.6255 3.664C25.2237 3.73674 26.0909 4.00475 26.6696 4.22755C27.4349 4.52401 27.981 4.87996 28.5551 5.45295C29.1292 6.02594 29.4833 6.57246 29.7812 7.33732C30.0063 7.91398 30.2725 8.78238 30.3451 10.3796C30.4246 12.1079 30.4405 12.6252 30.4405 17C30.4405 21.3749 30.4246 21.8922 30.3451 23.6205C30.2724 25.2177 30.0048 26.0858 29.7812 26.6628C29.4833 27.4276 29.1284 27.9733 28.5551 28.5458C27.9818 29.1183 27.4349 29.4734 26.6696 29.7712C26.0926 29.9961 25.2237 30.2622 23.6255 30.3348C21.8976 30.4142 21.3786 30.43 17.0011 30.43C12.6236 30.43 12.106 30.4142 10.3786 30.3348ZM10.2429 0.716742C8.49787 0.796164 7.30543 1.0727 6.26407 1.47767C5.18559 1.89588 4.27261 2.45694 3.36029 3.36728C2.44796 4.27762 1.888 5.19149 1.46954 6.26932C1.06433 7.31071 0.787627 8.50178 0.708158 10.2458C0.627377 11.9925 0.608887 12.551 0.608887 16.9999C0.608887 21.4488 0.627377 22.0073 0.708158 23.754C0.787627 25.4982 1.06433 26.6891 1.46954 27.7305C1.888 28.8077 2.44809 29.7226 3.36029 30.6325C4.27248 31.5425 5.18559 32.1028 6.26407 32.5221C7.3074 32.9271 8.49787 33.2036 10.2429 33.2831C11.9916 33.3625 12.5495 33.3823 17.0011 33.3823C21.4527 33.3823 22.0115 33.3638 23.7593 33.2831C25.5045 33.2036 26.6961 32.9271 27.7381 32.5221C28.8159 32.1028 29.7296 31.5429 30.6419 30.6325C31.5542 29.7222 32.113 28.8077 32.5326 27.7305C32.9379 26.6891 33.2159 25.498 33.294 23.754C33.3735 22.006 33.392 21.4488 33.392 16.9999C33.392 12.551 33.3735 11.9925 33.294 10.2458C33.2146 8.50165 32.9379 7.31006 32.5326 6.26932C32.113 5.19215 31.5528 4.27906 30.6419 3.36728C29.731 2.4555 28.8159 1.89588 27.7394 1.47767C26.6961 1.0727 25.5043 0.794854 23.7606 0.716742C22.0128 0.637321 21.454 0.617531 17.0024 0.617531C12.5508 0.617531 11.9916 0.63601 10.2429 0.716742Z" fill="url(#fpaint1_radial_302_380)"/>
<defs>
<radialGradient id="fpaint0_radial_302_380" cx="0" cy="0" r="1" gradientUnits="userSpaceOnUse" gradientTransform="translate(4.96449 33.5371) scale(42.7973 42.7716)">
<stop offset="0.09" stop-color="#FA8F21"/>
<stop offset="0.78" stop-color="#D82D7E"/>
</radialGradient>
<radialGradient id="fpaint1_radial_302_380" cx="0" cy="0" r="1" gradientUnits="userSpaceOnUse" gradientTransform="translate(20.4912 35.0049) scale(33.7302 33.7099)">
<stop offset="0.64" stop-color="#8C3AAA" stop-opacity="0"/>
<stop offset="1" stop-color="#8C3AAA"/>
</radialGradient>
</defs>
</symbol><symbol viewBox="0 0 82 49" fill="none" id="svg-mastercard" xmlns="http://www.w3.org/2000/svg">
<g clip-path="url(#gclip0_104_1898)">
<path d="M57.4976 49H58.6802L59.9811 48.8819L61.1637 48.7639L62.3463 48.5277L63.6472 48.2916L64.7116 47.9373L65.8942 47.4651L66.9586 47.1108L68.1412 46.6386L69.2056 46.0482L70.1517 45.4578L71.216 44.8675L72.1621 44.159L73.1082 43.4506L73.9361 42.6241L74.8822 41.7976L75.71 40.9711L76.4196 40.0265L77.1291 39.2L77.8387 38.1373L78.43 37.1928L79.0213 36.1301L79.6127 35.0675L80.0857 34.0048L80.5588 32.9422L80.9135 31.7614L81.2683 30.5807L81.5049 29.4L81.7414 28.2193L81.8596 26.9205L81.9779 25.7398V24.441V23.2602L81.8596 21.9614L81.7414 20.7807L81.5049 19.4819L81.2683 18.3012L80.9135 17.2386L80.5588 16.0578L80.0857 14.9952L79.6127 13.8145L79.0213 12.8699L78.43 11.8072L77.8387 10.7446L77.1291 9.8L76.4196 8.97349L75.71 8.02892L74.8822 7.20241L73.9361 6.3759L73.1082 5.5494L72.1621 4.84096L71.216 4.13253L70.1517 3.54217L69.2056 2.95181L68.1412 2.47952L66.9586 1.88916L65.8942 1.53494L64.7116 1.06265L63.6472 0.826506L62.3463 0.472289L61.1637 0.236145L59.9811 0.118072L58.6802 0H57.4976H56.1967L54.8958 0.118072L53.7132 0.236145L52.5305 0.472289L51.3479 0.826506L50.1653 1.06265L48.9827 1.53494L47.9183 1.88916L46.8539 2.47952L45.7896 2.95181L44.7252 3.54217L43.7791 4.13253L42.833 4.84096L41.8869 5.5494L40.9408 6.3759L40.113 7.20241L39.2851 8.02892L38.5756 8.97349L37.866 9.8L37.1564 10.7446L36.4468 11.8072L35.8555 12.8699L35.3825 13.8145L34.9094 14.9952L34.4364 16.0578L34.0816 17.2386L33.7268 18.3012L33.4903 19.4819L33.2537 20.7807L33.0172 21.9614V23.2602L32.899 24.441L33.0172 25.7398V26.9205L33.2537 28.2193L33.4903 29.4L33.7268 30.5807L34.0816 31.7614L34.4364 32.9422L34.9094 34.0048L35.3825 35.0675L35.8555 36.1301L36.4468 37.1928L37.1564 38.1373L37.866 39.2L38.5756 40.0265L39.2851 40.9711L40.113 41.7976L40.9408 42.6241L41.8869 43.4506L42.833 44.159L43.7791 44.8675L44.7252 45.4578L45.7896 46.0482L46.8539 46.6386L47.9183 47.1108L48.9827 47.4651L50.1653 47.9373L51.3479 48.2916L52.5305 48.5277L53.7132 48.7639L54.8958 48.8819L56.1967 49H57.4976Z" fill="#FE9900"/>
<path d="M24.6211 49.0001H25.922L27.1046 48.882L28.2872 48.764L29.5881 48.5278L30.7707 48.2917L31.9533 47.9375L33.0177 47.4652L34.2003 47.111L35.2647 46.6387L36.3291 46.0483L37.2752 45.458L38.3395 44.8676L39.2856 44.1592L40.2317 43.4507L41.0596 42.6242L41.8874 41.7977L42.7152 40.9712L43.5431 40.0266L44.2526 39.2001L44.9622 38.1375L45.5535 37.1929L46.1448 36.1302L46.7362 35.0676L47.2092 34.0049L47.6823 32.9423L48.037 31.7616L48.3918 30.5808L48.6284 29.4001L48.8649 28.2194L48.9831 26.9206L49.1014 25.7399V24.4411V23.2604L48.9831 21.9616L48.8649 20.7808L48.6284 19.482L48.3918 18.3013L48.037 17.2387L47.6823 16.058L47.2092 14.9953L46.7362 13.8146L46.1448 12.87L45.5535 11.8074L44.9622 10.7447L44.2526 9.80012L43.5431 8.97362L42.7152 8.02904L41.8874 7.20253L41.0596 6.37603L40.2317 5.54952L39.2856 4.84109L38.3395 4.13265L37.2752 3.54229L36.3291 2.95193L35.2647 2.47964L34.2003 1.88928L33.0177 1.53506L31.9533 1.06277L30.7707 0.826628L29.5881 0.472411L28.2872 0.236267L27.1046 0.118194L25.922 0.00012207H24.6211H23.3202L22.1376 0.118194L20.8367 0.236267L19.654 0.472411L18.4714 0.826628L17.2888 1.06277L16.1062 1.53506L15.0418 1.88928L13.9774 2.47964L12.9131 2.95193L11.8487 3.54229L10.9026 4.13265L9.95651 4.84109L9.01041 5.54952L8.06431 6.37603L7.23647 7.20253L6.40864 8.02904L5.5808 8.97362L4.87122 9.80012L4.16165 10.7447L3.57034 11.8074L2.97902 12.87L2.50597 13.8146L1.91466 14.9953L1.55987 16.058L1.08682 17.2387L0.850299 18.3013L0.495511 19.482L0.258986 20.7808L0.140723 21.9616L0.0224609 23.2604V24.4411V25.7399L0.140723 26.9206L0.258986 28.2194L0.495511 29.4001L0.850299 30.5808L1.08682 31.7616L1.55987 32.9423L1.91466 34.0049L2.50597 35.0676L2.97902 36.1302L3.57034 37.1929L4.16165 38.1375L4.87122 39.2001L5.5808 40.0266L6.40864 40.9712L7.23647 41.7977L8.06431 42.6242L9.01041 43.4507L9.95651 44.1592L10.9026 44.8676L11.8487 45.458L12.9131 46.0483L13.9774 46.6387L15.0418 47.111L16.1062 47.4652L17.2888 47.9375L18.4714 48.2917L19.654 48.5278L20.8367 48.764L22.1376 48.882L23.3202 49.0001H24.6211Z" fill="#CC0001"/>
<path d="M38.1025 9.4458H51.2296V8.02893H39.2851L38.1025 9.4458Z" fill="#F9B32A"/>
<path d="M36.2103 12.3976H51.2296V10.9807H37.0381L36.2103 12.3976Z" fill="#F9B32A"/>
<path d="M34.7911 15.3495H51.2296V13.9326H35.3824L34.7911 15.3495Z" fill="#F9B32A"/>
<path d="M33.7267 18.3014H51.2295V16.8845H34.1997L33.7267 18.3014Z" fill="#F9B32A"/>
<path d="M34.3181 32.5881H51.2297V31.2893H33.9633L34.3181 32.5881Z" fill="#F9B32A"/>
<path d="M35.619 35.5399H51.2296V34.2411H34.9094L35.619 35.5399Z" fill="#F9B32A"/>
<path d="M37.2746 38.4915H51.2295V37.1927H36.4467L37.2746 38.4915Z" fill="#F9B32A"/>
<path d="M39.758 41.4434H51.2295V40.1447H38.5754L39.758 41.4434Z" fill="#F9B32A"/>
<path d="M33.1354 21.2532H51.2296V19.8363H33.3719L33.1354 21.2532Z" fill="#F9B32A"/>
<path d="M44.1339 29.6362H50.9931V28.3374H44.3704L44.1339 29.6362Z" fill="#F9B32A"/>
<path d="M44.7251 26.6843H50.993V25.2675H44.9616L44.7251 26.6843Z" fill="#F9B32A"/>
<path d="M32.6624 25.2675H34.4363V26.6843H32.7806L32.6624 25.2675Z" fill="#F9B32A"/>
<path d="M29.351 23.7327H29.2328H29.1145L28.9962 23.6147H28.878H28.7597H28.6415H28.5232H28.4049H28.2867H28.0501L27.9319 23.4966H27.8136L27.5771 23.6147H27.3406H27.104H26.9858H26.7493L26.631 23.7327H26.5127L26.3945 23.8508H26.2762L26.1579 23.9689L26.0397 24.0869V24.205V24.3231V24.4412V24.5592L26.1579 24.6773L26.2762 24.7954L26.3945 25.0315L26.631 25.1496L26.8675 25.2677H27.104L27.3406 25.3857L27.5771 25.5038L27.9319 25.6219L28.1684 25.74L28.4049 25.858L28.6415 25.9761L28.878 26.2122L28.9962 26.4484L29.1145 26.8026L29.2328 27.1568V27.6291V28.1014V28.4556L29.1145 28.8098L28.9962 29.164L28.7597 29.4002L28.6415 29.6363L28.4049 29.8725L28.1684 30.1086L27.9319 30.2267L27.5771 30.3448L27.3406 30.4628L27.104 30.5809H26.7493L26.5127 30.699H26.2762H25.9214H25.6849H25.3301H24.9753H24.7388H24.5023H24.1475H24.0292H23.7927L23.5562 30.5809H23.4379H23.2014H23.0831L22.9649 30.4628H22.8466H22.7283L22.4918 30.3448H22.3735L22.7283 28.4556H22.8466L22.9649 28.5737H23.0831H23.2014L23.3196 28.6918H23.5562H23.6744H23.911L24.1475 28.8098H24.2657H24.5023H24.7388H24.9753L25.2118 28.9279H25.4484L25.6849 28.8098H25.9214L26.1579 28.6918H26.2762L26.3945 28.5737L26.5127 28.4556L26.631 28.3375V28.2195V27.9833V27.7472V27.6291L26.5127 27.393L26.2762 27.2749L26.0397 27.1568L25.6849 27.0387L25.3301 26.9207L25.0936 26.8026L24.7388 26.6845L24.384 26.4484L24.1475 26.2122L23.911 25.9761L23.6744 25.74L23.5562 25.2677L23.4379 24.9134V24.3231V23.9689L23.5562 23.7327L23.6744 23.3785V23.1424L23.911 22.9062L24.0292 22.6701L24.1475 22.4339L24.384 22.3159L24.6205 22.1978L24.8571 21.9616L25.2118 21.8436H25.5666L25.9214 21.7255H26.2762L26.7493 21.6074H27.2223H27.5771H27.8136H28.0501H28.2867L28.5232 21.7255H28.7597H28.878H28.9962H29.1145H29.2328H29.351L29.4693 21.8436H29.5876H29.7058H29.8241L29.351 23.7327Z" fill="#FEFEFE"/>
<path d="M31.3615 19.8363H33.6085L33.2537 21.8435H34.6729L34.3181 23.6146H32.899L32.0711 28.2194V28.4556L32.1894 28.5737V28.6917H32.3076L32.4259 28.8098H32.6624L32.7807 28.9279H33.0172H33.2537H33.372L33.4903 28.8098H33.6085H33.7268H33.8451V28.6917H33.9633L33.6085 30.2267V30.3447H33.4903L33.372 30.4628H33.2537H33.1355L33.0172 30.5809H32.899H32.7807H32.6624H32.5442L32.4259 30.699H32.1894H31.5981L31.2433 30.5809H31.0068H30.7702L30.5337 30.4628H30.2972L30.1789 30.3447L30.0607 30.2267L29.9424 30.1086L29.8241 29.9905V29.8724L29.7059 29.7544V29.5182V29.4002V29.164V29.0459V28.8098L31.3615 19.8363Z" fill="#FEFEFE"/>
<path d="M36.4467 26.8026V26.9207V27.0387V27.2749L36.565 27.393V27.511L36.6832 27.7472V27.8653L36.8015 27.9833L36.9198 28.1014L37.038 28.2195L37.1563 28.3375L37.3928 28.4556L37.5111 28.5737L37.6293 28.6918H37.8659H37.9841L38.2207 28.8098H38.4572H38.5754H38.812H39.0485H39.285H39.5215H39.7581H39.9946L40.1129 28.6918H40.3494L40.5859 28.5737H40.8224L41.059 28.4556L41.2955 28.3375L41.532 28.2195L41.1772 30.2267H41.059L40.9407 30.3448H40.8224L40.7042 30.4628H40.5859H40.4676L40.3494 30.5809H40.2311H39.9946H39.8763H39.6398L39.5215 30.699H39.285H39.0485H38.812H38.5754H38.1024L37.7476 30.5809H37.2746L36.9198 30.4628L36.4467 30.3448L36.0919 30.2267L35.7371 29.9906L35.3824 29.7544L35.0276 29.4002L34.791 29.046L34.5545 28.6918L34.318 28.3375L34.1997 27.7472L34.0815 27.2749V26.6845V25.9761L34.1997 25.74V25.3857L34.318 25.0315V24.6773L34.4363 24.3231L34.6728 23.9689L34.791 23.6147L35.0276 23.2604L35.2641 22.9062L35.6189 22.6701L35.9737 22.3159L36.4467 22.0797L36.9198 21.9616L37.3928 21.7255L37.9841 21.6074H38.6937H39.0485L39.4033 21.7255H39.7581L39.9946 21.8436L40.3494 21.9616L40.7042 22.0797L40.9407 22.3159L41.2955 22.552L41.532 22.7881L41.7685 23.1424L41.8868 23.4966L42.0051 23.9689L42.1233 24.4412V25.0315L42.0051 25.6219L41.8868 26.3303V26.8026H35.8554L36.2102 25.1496H39.8763V25.0315V24.7954V24.5592L39.7581 24.4412V24.3231L39.6398 24.205V24.0869L39.5215 23.9689L39.4033 23.8508L39.285 23.7327L39.1668 23.6147H39.0485L38.9302 23.4966H38.812H38.6937H38.4572H38.3389H38.2207H38.1024L37.8659 23.6147H37.7476L37.6293 23.7327L37.5111 23.8508L37.3928 23.9689L37.2746 24.0869L37.1563 24.205V24.3231L37.038 24.4412L36.9198 24.5592V24.7954L36.8015 24.9134V25.0315L36.4467 26.8026Z" fill="#FEFEFE"/>
<path d="M56.1967 22.3158L56.0785 22.1977L55.9602 22.0796H55.7237H55.6054L55.4871 21.9616H55.3689L55.2506 21.8435H55.0141H54.8958L54.7776 21.7254H54.541H54.4228H54.1863H53.9497H53.8315H53.5949H53.3584H53.1219L52.8854 21.8435H52.6488L52.4123 21.9616L52.1758 22.0796L51.9393 22.1977L51.7027 22.4339L51.5845 22.67L51.348 22.9062L51.1114 23.1423L50.9932 23.4965L50.7566 23.9688L50.6384 24.4411L50.5201 24.9134L50.4019 25.2676V25.5037V25.858V26.0941V26.4483L50.5201 26.6845V26.9206L50.6384 27.1568L50.7566 27.3929L50.8749 27.629L51.1114 27.7471L51.2297 27.9833L51.4662 28.1013L51.821 28.2194L52.0575 28.3375L52.4123 28.4555H52.6488H52.7671H52.8854H53.1219H53.2402H53.4767H53.7132H53.9497H54.068L54.3045 28.3375H54.541L54.7776 28.2194L54.8958 28.1013L55.1324 27.9833L55.2506 27.8652L54.8958 29.9905V30.1086H54.7776V30.2266H54.6593L54.541 30.3447H54.4228L54.3045 30.4628H54.1863H53.9497L53.7132 30.5808H53.4767H53.2402L52.8854 30.6989H52.5306H52.0575L51.7027 30.5808H51.2297L50.8749 30.4628L50.5201 30.3447L50.1653 30.2266L49.8105 29.9905L49.4558 29.7543L49.101 29.5182L48.7462 29.164L48.5097 28.8098L48.2731 28.3375L48.0366 27.8652L47.9183 27.3929L47.8001 26.8025V26.2122V25.6218L47.9183 24.9134V24.5592L48.0366 24.2049L48.1549 23.9688V23.6146L48.2731 23.3784L48.3914 23.0242L48.5097 22.7881L48.6279 22.5519L48.7462 22.1977L48.8644 21.9616L48.9827 21.7254L49.2192 21.6074L49.3375 21.3712L49.4558 21.1351L49.6923 21.017L49.8105 20.7809L50.0471 20.6628L50.1653 20.4266L50.4019 20.3086L50.6384 20.1905L50.8749 20.0724L51.1114 19.9543L51.2297 19.8363H51.5845L51.821 19.7182L52.0575 19.6001H52.2941L52.5306 19.4821H52.8854H53.1219H53.4767H53.8315H54.068H54.3045H54.541H54.7776L55.0141 19.6001H55.2506H55.4871L55.7237 19.7182H55.8419L56.0785 19.8363H56.1967H56.315L56.4332 19.9543H56.5515H56.6698L56.1967 22.3158Z" fill="#FEFEFE"/>
<path d="M76.656 30.699H74.2908L74.5273 29.7544V29.6363L74.409 29.8724L74.1725 29.9905L74.0543 30.1086L73.936 30.2267L73.8177 30.3447L73.5812 30.4628H73.4629L73.3447 30.5809H73.2264L72.9899 30.699H72.8716H72.6351H72.5168L72.3986 30.817H72.1621H72.0438L71.5707 30.699H71.216L70.8612 30.4628L70.5064 30.3447L70.2699 30.1086L69.9151 29.7544L69.6785 29.5182L69.5603 29.164L69.3238 28.8098L69.2055 28.3375L69.0872 27.9833V27.511V27.1568V26.6845V26.3303L69.2055 25.858L69.3238 25.3857L69.442 24.9134L69.5603 24.4411L69.7968 24.0869L70.0333 23.7327L70.2699 23.3785L70.5064 23.1423L70.8612 22.7881L71.0977 22.552L71.4525 22.4339L71.689 22.1977L72.0438 22.0797L72.3986 21.9616L72.7534 21.8435H72.9899H73.3447H73.5812H73.8177H74.0543L74.2908 21.9616H74.409L74.6456 22.0797L74.7638 22.1977L74.8821 22.3158H75.0004L75.2369 22.4339V22.552L75.3551 22.67L75.4734 22.7881L75.5917 22.9062V23.0243L75.7099 23.1423L76.183 19.8363H78.5482L76.656 30.699Z" fill="#FEFEFE"/>
<path d="M72.8717 28.6918H73.1082L73.3447 28.5737H73.463L73.6995 28.4556L73.936 28.3376L74.0543 28.2195L74.1726 28.1014L74.2908 27.9834L74.4091 27.7472L74.5274 27.6291L74.6456 27.393L74.7639 27.1569L74.8821 27.0388V26.8026L75.0004 26.5665V26.3303L75.1187 26.0942V25.8581V25.6219V25.3858V25.1496L75.0004 25.0316V24.7954L74.8821 24.5593V24.4412L74.7639 24.3231L74.6456 24.087L74.5274 23.9689H74.4091L74.1726 23.8508H74.0543H73.8178H73.6995H73.463L73.2265 23.9689H73.1082L72.8717 24.087L72.7534 24.205L72.6352 24.3231L72.3986 24.5593L72.2804 24.6773L72.1621 24.9135L72.0438 25.1496V25.2677L71.9256 25.5038L71.8073 25.74V25.9761L71.6891 26.2123V26.5665V27.0388L71.8073 27.393L71.9256 27.7472L72.0438 28.1014L72.2804 28.4556L72.5169 28.5737L72.8717 28.6918Z" fill="#FE9900"/>
<path d="M22.0188 28.8098L21.664 30.699H19.6535V30.3447V29.9905L19.7718 29.7544V29.6363L19.6535 29.7544L19.5352 29.8725L19.417 29.9905L19.1805 30.1086L18.9439 30.2267L18.8257 30.3447L18.5891 30.4628L18.3526 30.5809H18.1161L17.8796 30.699H17.643L17.4065 30.817H17.17H16.9335H16.6969L16.4604 30.699H16.1056L15.8691 30.5809L15.6326 30.4628L15.3961 30.3447L15.2778 30.2267L15.1595 30.1086L14.923 29.8725L14.8047 29.7544V29.5182L14.6865 29.4002L14.5682 29.164V29.0459V28.8098L14.45 28.6917V28.4556V28.3375L14.5682 27.9833V27.6291L14.6865 27.3929L14.8047 27.0387L14.923 26.8026L15.0413 26.5664L15.1595 26.3303L15.3961 26.0941L15.6326 25.9761L15.8691 25.7399L16.1056 25.6218L16.3422 25.5038L16.5787 25.3857L16.8152 25.2676H17.17L17.4065 25.1496H17.5248H17.643H17.7613H17.8796H17.9978L18.1161 25.0315H18.2344H18.3526H18.5891H18.7074H18.8257H18.9439H19.0622H19.1805H19.2987H19.5352H19.7718H19.89H20.0083H20.1266H20.2448L20.3631 24.7953V24.6773V24.4411V24.3231L20.2448 24.205V23.9688L20.0083 23.8508L19.89 23.7327H19.7718L19.5352 23.6146H19.2987H19.0622H18.8257H18.5891H18.3526H17.9978H17.7613L17.5248 23.7327H17.2883H17.0517L16.8152 23.8508H16.5787H16.3422L16.2239 23.9688H15.9874L15.8691 24.0869L16.4604 22.0797L16.5787 21.9616H16.8152L16.9335 21.8435H17.17H17.4065L17.5248 21.7255H17.7613H17.9978H18.2344H18.4709H18.7074H18.9439H19.2987H19.5352H19.7718H20.1266H20.3631H20.5996L20.8361 21.8435L21.0727 21.9616H21.4274L21.664 22.0797L21.9005 22.3158L22.137 22.4339L22.2553 22.552L22.4918 22.7881L22.6101 23.0243L22.7283 23.2604L22.8466 23.4965L22.9649 23.8508V24.0869L22.8466 24.4411L22.0188 28.8098Z" fill="#FEFEFE"/>
<path d="M20.0082 26.6845V26.5664H19.89H19.7717H19.6534H19.5352H19.4169H19.2987H19.1804H19.0621H18.8256H18.7073H18.5891V26.6845H18.4708H18.3526H18.2343L18.116 26.8026H17.9978L17.8795 26.9206H17.7612L17.643 27.0387H17.5247V27.1568L17.4065 27.2748L17.2882 27.3929L17.1699 27.511V27.6291L17.0517 27.7471V27.8652V28.1013V28.3375L17.1699 28.5736L17.2882 28.6917H17.4065L17.5247 28.8098H17.643H17.8795H18.116H18.3526H18.4708L18.7073 28.6917H18.8256L19.0621 28.5736L19.1804 28.4556H19.2987L19.4169 28.3375L19.5352 28.2194V28.1013L19.6534 27.9833L19.7717 27.8652V27.7471V27.6291L19.89 27.3929V27.1568L20.0082 26.9206V26.6845Z" fill="#CC0001"/>
<path d="M4.63423 30.699H2.38724L4.27944 19.8363H8.1821L8.53689 26.2122L11.2569 19.8363H15.2779L13.3857 30.699H11.1387L12.5578 22.552H12.4396L9.1282 30.699H6.52643V30.3447V29.4002L6.40816 28.1014L6.2899 26.6845V25.1496L6.17164 23.8508V22.9062L6.05338 22.552H5.93511L4.63423 30.699Z" fill="#FEFEFE"/>
<path d="M57.4976 22.0796L56.9063 24.0868H57.0245L57.6159 22.0796L57.4976 22.1977V22.0796Z" fill="#FEFEFE"/>
<path d="M61.1637 21.6074H60.9272H60.6906H60.3358H60.0993H59.8628H59.6263H59.3897L59.1532 21.7255H58.9167H58.6802H58.4436L58.3254 21.8436H58.0889L57.8523 21.9616H57.7341L57.4975 22.0797V22.1978L57.7341 22.0797L57.9706 21.9616H58.0889H58.3254L58.5619 21.8436H58.6802H58.9167L59.1532 21.7255H59.3897H59.6263H59.8628H60.0993H60.3358H60.6906H60.9272H61.1637V21.6074Z" fill="#FEFEFE"/>
<path d="M63.174 28.8097L64.0019 24.441H63.8836L63.0558 28.8097H63.174Z" fill="#FEFEFE"/>
<path d="M63.7654 30.699H66.1306L66.9585 25.9761V25.7399V25.6218L67.0767 25.3857V25.2676L67.195 25.0315L67.3132 24.9134L67.4315 24.6773L67.5498 24.5592L67.668 24.4411L67.7863 24.3231L68.0228 24.205L68.2593 24.0869L68.4959 23.9688L68.7324 23.8508H69.0872H69.3237H69.442H69.5602L69.915 21.7255H69.6785H69.442L69.3237 21.8435H69.0872L68.8507 21.9616H68.7324L68.6141 22.0797L68.3776 22.1978L68.2593 22.3158L68.1411 22.4339L68.0228 22.552L67.9046 22.67L67.7863 22.7881L67.5498 23.0243L67.4315 23.1423L67.3132 23.2604L67.668 21.8435H65.3028L63.7654 30.699Z" fill="#FEFEFE"/>
<path d="M41.7687 30.699H44.134L44.9618 25.9761V25.7399L45.0801 25.6218V25.3857L45.1983 25.2676V25.1496L45.3166 24.9134L45.4348 24.7953L45.5531 24.6773L45.6714 24.5592L45.7896 24.4411L46.0262 24.3231L46.1444 24.205L46.3809 24.0869H46.6175H46.9723L47.327 23.9688H47.4453V24.0869H47.5636V23.9688V23.7327L47.6818 23.6146V23.3785L47.8001 23.1423V22.9062L47.9184 22.67V22.552L48.0366 22.3158L48.1549 22.1978L48.2731 22.0797V21.9616L48.3914 21.8435V21.7255H48.2731H48.1549H48.0366H47.8001H47.5636L47.327 21.8435H47.0905L46.9723 21.9616H46.7357L46.6175 22.0797L46.4992 22.1978L46.2627 22.3158L46.1444 22.4339L46.0262 22.552L45.9079 22.67L45.7896 22.7881L45.6714 23.0243L45.5531 23.1423L45.4348 23.2604L45.7896 21.8435H43.3061L41.7687 30.699Z" fill="#FEFEFE"/>
<path d="M29.351 23.7327H29.2328H29.1145L28.9962 23.6147H28.878H28.7597H28.6415H28.5232H28.4049H28.2867H28.0501L27.9319 23.4966H27.8136L27.5771 23.6147H27.3406H27.104H26.9858H26.7493L26.631 23.7327H26.5127L26.3945 23.8508H26.2762L26.1579 23.9689L26.0397 24.0869V24.205V24.3231V24.4412V24.5592L26.1579 24.6773L26.2762 24.7954L26.3945 25.0315L26.631 25.1496L26.8675 25.2677H27.104L27.3406 25.3857L27.5771 25.5038L27.9319 25.6219L28.1684 25.74L28.4049 25.858L28.6415 25.9761L28.878 26.2122L28.9962 26.4484L29.1145 26.8026L29.2328 27.1568V27.6291V28.1014V28.4556L29.1145 28.8098L28.9962 29.164L28.7597 29.4002L28.6415 29.6363L28.4049 29.8725L28.1684 30.1086L27.9319 30.2267L27.5771 30.3448L27.3406 30.4628L27.104 30.5809H26.7493L26.5127 30.699H26.2762H25.9214H25.6849H25.3301H24.9753H24.7388H24.5023H24.1475H24.0292H23.7927L23.5562 30.5809H23.4379H23.2014H23.0831L22.9649 30.4628H22.8466H22.7283L22.4918 30.3448H22.3735L22.7283 28.4556H22.8466L22.9649 28.5737H23.0831H23.2014L23.3196 28.6918H23.5562H23.6744H23.911L24.1475 28.8098H24.2657H24.5023H24.7388H24.9753L25.2118 28.9279H25.4484L25.6849 28.8098H25.9214L26.1579 28.6918H26.2762L26.3945 28.5737L26.5127 28.4556L26.631 28.3375V28.2195V27.9833V27.7472V27.6291L26.5127 27.393L26.2762 27.2749L26.0397 27.1568L25.6849 27.0387L25.3301 26.9207L25.0936 26.8026L24.7388 26.6845L24.384 26.4484L24.1475 26.2122L23.911 25.9761L23.6744 25.74L23.5562 25.2677L23.4379 24.9134V24.3231V23.9689L23.5562 23.7327L23.6744 23.3785V23.1424L23.911 22.9062L24.0292 22.6701L24.1475 22.4339L24.384 22.3159L24.6205 22.1978L24.8571 21.9616L25.2118 21.8436H25.5666L25.9214 21.7255H26.2762L26.7493 21.6074H27.2223H27.5771H27.8136H28.0501H28.2867L28.5232 21.7255H28.7597H28.878H28.9962H29.1145H29.2328H29.351L29.4693 21.8436H29.5876H29.7058H29.8241L29.351 23.7327Z" stroke="#FEFEFE" stroke-width="0.0693333"/>
<path d="M31.3615 19.8363H33.6085L33.2537 21.8435H34.6729L34.3181 23.6146H32.899L32.0711 28.2194V28.4556L32.1894 28.5737V28.6917H32.3076L32.4259 28.8098H32.6624L32.7807 28.9279H33.0172H33.2537H33.372L33.4903 28.8098H33.6085H33.7268H33.8451V28.6917H33.9633L33.6085 30.2267V30.3447H33.4903L33.372 30.4628H33.2537H33.1355L33.0172 30.5809H32.899H32.7807H32.6624H32.5442L32.4259 30.699H32.1894H31.5981L31.2433 30.5809H31.0068H30.7702L30.5337 30.4628H30.2972L30.1789 30.3447L30.0607 30.2267L29.9424 30.1086L29.8241 29.9905V29.8724L29.7059 29.7544V29.5182V29.4002V29.164V29.0459V28.8098L31.3615 19.8363Z" stroke="#FEFEFE" stroke-width="0.0693333"/>
<path d="M36.4467 26.8026V26.9207V27.0387V27.2749L36.565 27.393V27.511L36.6832 27.7472V27.8653L36.8015 27.9833L36.9198 28.1014L37.038 28.2195L37.1563 28.3375L37.3928 28.4556L37.5111 28.5737L37.6293 28.6918H37.8659H37.9841L38.2207 28.8098H38.4572H38.5754H38.812H39.0485H39.285H39.5215H39.7581H39.9946L40.1129 28.6918H40.3494L40.5859 28.5737H40.8224L41.059 28.4556L41.2955 28.3375L41.532 28.2195L41.1772 30.2267H41.059L40.9407 30.3448H40.8224L40.7042 30.4628H40.5859H40.4676L40.3494 30.5809H40.2311H39.9946H39.8763H39.6398L39.5215 30.699H39.285H39.0485H38.812H38.5754H38.1024L37.7476 30.5809H37.2746L36.9198 30.4628L36.4467 30.3448L36.0919 30.2267L35.7371 29.9906L35.3824 29.7544L35.0276 29.4002L34.791 29.046L34.5545 28.6918L34.318 28.3375L34.1997 27.7472L34.0815 27.2749V26.6845V25.9761L34.1997 25.74V25.3857L34.318 25.0315V24.6773L34.4363 24.3231L34.6728 23.9689L34.791 23.6147L35.0276 23.2604L35.2641 22.9062L35.6189 22.6701L35.9737 22.3159L36.4467 22.0797L36.9198 21.9616L37.3928 21.7255L37.9841 21.6074H38.6937H39.0485L39.4033 21.7255H39.7581L39.9946 21.8436L40.3494 21.9616L40.7042 22.0797L40.9407 22.3159L41.2955 22.552L41.532 22.7881L41.7685 23.1424L41.8868 23.4966L42.0051 23.9689L42.1233 24.4412V25.0315L42.0051 25.6219L41.8868 26.3303V26.8026H35.8554L36.2102 25.1496H39.8763V25.0315V24.7954V24.5592L39.7581 24.4412V24.3231L39.6398 24.205V24.0869L39.5215 23.9689L39.4033 23.8508L39.285 23.7327L39.1668 23.6147H39.0485L38.9302 23.4966H38.812H38.6937H38.4572H38.3389H38.2207H38.1024L37.8659 23.6147H37.7476L37.6293 23.7327L37.5111 23.8508L37.3928 23.9689L37.2746 24.0869L37.1563 24.205V24.3231L37.038 24.4412L36.9198 24.5592V24.7954L36.8015 24.9134V25.0315L36.4467 26.8026Z" stroke="#FEFEFE" stroke-width="0.0693333"/>
<path d="M56.1967 22.3158L56.0785 22.1977L55.9602 22.0796H55.7237H55.6054L55.4871 21.9616H55.3689L55.2506 21.8435H55.0141H54.8958L54.7776 21.7254H54.541H54.4228H54.1863H53.9497H53.8315H53.5949H53.3584H53.1219L52.8854 21.8435H52.6488L52.4123 21.9616L52.1758 22.0796L51.9393 22.1977L51.7027 22.4339L51.5845 22.67L51.348 22.9062L51.1114 23.1423L50.9932 23.4965L50.7566 23.9688L50.6384 24.4411L50.5201 24.9134L50.4019 25.2676V25.5037V25.858V26.0941V26.4483L50.5201 26.6845V26.9206L50.6384 27.1568L50.7566 27.3929L50.8749 27.629L51.1114 27.7471L51.2297 27.9833L51.4662 28.1013L51.821 28.2194L52.0575 28.3375L52.4123 28.4555H52.6488H52.7671H52.8854H53.1219H53.2402H53.4767H53.7132H53.9497H54.068L54.3045 28.3375H54.541L54.7776 28.2194L54.8958 28.1013L55.1324 27.9833L55.2506 27.8652L54.8958 29.9905V30.1086H54.7776V30.2266H54.6593L54.541 30.3447H54.4228L54.3045 30.4628H54.1863H53.9497L53.7132 30.5808H53.4767H53.2402L52.8854 30.6989H52.5306H52.0575L51.7027 30.5808H51.2297L50.8749 30.4628L50.5201 30.3447L50.1653 30.2266L49.8105 29.9905L49.4558 29.7543L49.101 29.5182L48.7462 29.164L48.5097 28.8098L48.2731 28.3375L48.0366 27.8652L47.9183 27.3929L47.8001 26.8025V26.2122V25.6218L47.9183 24.9134V24.5592L48.0366 24.2049L48.1549 23.9688V23.6146L48.2731 23.3784L48.3914 23.0242L48.5097 22.7881L48.6279 22.5519L48.7462 22.1977L48.8644 21.9616L48.9827 21.7254L49.2192 21.6074L49.3375 21.3712L49.4558 21.1351L49.6923 21.017L49.8105 20.7809L50.0471 20.6628L50.1653 20.4266L50.4019 20.3086L50.6384 20.1905L50.8749 20.0724L51.1114 19.9543L51.2297 19.8363H51.5845L51.821 19.7182L52.0575 19.6001H52.2941L52.5306 19.4821H52.8854H53.1219H53.4767H53.8315H54.068H54.3045H54.541H54.7776L55.0141 19.6001H55.2506H55.4871L55.7237 19.7182H55.8419L56.0785 19.8363H56.1967H56.315L56.4332 19.9543H56.5515H56.6698L56.1967 22.3158Z" stroke="#FEFEFE" stroke-width="0.0693333"/>
<path d="M76.656 30.699H74.2908L74.5273 29.7544V29.6363L74.409 29.8724L74.1725 29.9905L74.0543 30.1086L73.936 30.2267L73.8177 30.3447L73.5812 30.4628H73.4629L73.3447 30.5809H73.2264L72.9899 30.699H72.8716H72.6351H72.5168L72.3986 30.817H72.1621H72.0438L71.5707 30.699H71.216L70.8612 30.4628L70.5064 30.3447L70.2699 30.1086L69.9151 29.7544L69.6785 29.5182L69.5603 29.164L69.3238 28.8098L69.2055 28.3375L69.0872 27.9833V27.511V27.1568V26.6845V26.3303L69.2055 25.858L69.3238 25.3857L69.442 24.9134L69.5603 24.4411L69.7968 24.0869L70.0333 23.7327L70.2699 23.3785L70.5064 23.1423L70.8612 22.7881L71.0977 22.552L71.4525 22.4339L71.689 22.1977L72.0438 22.0797L72.3986 21.9616L72.7534 21.8435H72.9899H73.3447H73.5812H73.8177H74.0543L74.2908 21.9616H74.409L74.6456 22.0797L74.7638 22.1977L74.8821 22.3158H75.0004L75.2369 22.4339V22.552L75.3551 22.67L75.4734 22.7881L75.5917 22.9062V23.0243L75.7099 23.1423L76.183 19.8363H78.5482L76.656 30.699Z" stroke="#FEFEFE" stroke-width="0.0693333"/>
<path d="M22.0188 28.8098L21.664 30.699H19.6535V30.3447V29.9905L19.7718 29.7544V29.6363L19.6535 29.7544L19.5352 29.8725L19.417 29.9905L19.1805 30.1086L18.9439 30.2267L18.8257 30.3447L18.5891 30.4628L18.3526 30.5809H18.1161L17.8796 30.699H17.643L17.4065 30.817H17.17H16.9335H16.6969L16.4604 30.699H16.1056L15.8691 30.5809L15.6326 30.4628L15.3961 30.3447L15.2778 30.2267L15.1595 30.1086L14.923 29.8725L14.8047 29.7544V29.5182L14.6865 29.4002L14.5682 29.164V29.0459V28.8098L14.45 28.6917V28.4556V28.3375L14.5682 27.9833V27.6291L14.6865 27.3929L14.8047 27.0387L14.923 26.8026L15.0413 26.5664L15.1595 26.3303L15.3961 26.0941L15.6326 25.9761L15.8691 25.7399L16.1056 25.6218L16.3422 25.5038L16.5787 25.3857L16.8152 25.2676H17.17L17.4065 25.1496H17.5248H17.643H17.7613H17.8796H17.9978L18.1161 25.0315H18.2344H18.3526H18.5891H18.7074H18.8257H18.9439H19.0622H19.1805H19.2987H19.5352H19.7718H19.89H20.0083H20.1266H20.2448L20.3631 24.7953V24.6773V24.4411V24.3231L20.2448 24.205V23.9688L20.0083 23.8508L19.89 23.7327H19.7718L19.5352 23.6146H19.2987H19.0622H18.8257H18.5891H18.3526H17.9978H17.7613L17.5248 23.7327H17.2883H17.0517L16.8152 23.8508H16.5787H16.3422L16.2239 23.9688H15.9874L15.8691 24.0869L16.4604 22.0797L16.5787 21.9616H16.8152L16.9335 21.8435H17.17H17.4065L17.5248 21.7255H17.7613H17.9978H18.2344H18.4709H18.7074H18.9439H19.2987H19.5352H19.7718H20.1266H20.3631H20.5996L20.8361 21.8435L21.0727 21.9616H21.4274L21.664 22.0797L21.9005 22.3158L22.137 22.4339L22.2553 22.552L22.4918 22.7881L22.6101 23.0243L22.7283 23.2604L22.8466 23.4965L22.9649 23.8508V24.0869L22.8466 24.4411L22.0188 28.8098Z" stroke="#FEFEFE" stroke-width="0.0693333"/>
<path d="M4.63423 30.699H2.38724L4.27944 19.8363H8.1821L8.53689 26.2122L11.2569 19.8363H15.2779L13.3857 30.699H11.1387L12.5578 22.552H12.4396L9.1282 30.699H6.52643V30.3447V29.4002L6.40816 28.1014L6.2899 26.6845V25.1496L6.17164 23.8508V22.9062L6.05338 22.552H5.93511L4.63423 30.699Z" stroke="#FEFEFE" stroke-width="0.0693333"/>
<path d="M63.1741 28.8098L62.8193 30.5809H60.8088C60.8088 30.5809 60.8088 29.7544 60.8088 29.6363V29.5183V29.6363L60.6906 29.7544L60.5723 29.8725L60.3358 29.9906L60.2175 30.1086L60.0993 30.2267L59.8627 30.3448H59.6262L59.5079 30.4628L59.2714 30.5809H59.0349L58.7984 30.699H58.5618H58.3253H58.0888H57.8523H57.6157L57.3792 30.5809L57.0244 30.4628L56.9062 30.3448L56.6696 30.2267L56.4331 30.1086L56.3149 29.9906L56.1966 29.8725L56.0783 29.6363L55.9601 29.5183V29.2821L55.8418 29.164V28.9279L55.7235 28.8098V28.5737V28.4556V28.2195V27.9833L55.8418 27.6291V27.393L55.9601 27.0387L56.0783 26.8026L56.1966 26.5665L56.4331 26.3303L56.5514 26.0942L56.7879 25.9761L57.0244 25.74L57.261 25.6219L57.4975 25.5038L57.734 25.3857L58.0888 25.2677H58.3253L58.5618 25.1496H58.6801H58.7984H58.9166H59.0349H59.1532H59.2714L59.3897 25.0315H59.5079H59.7445H59.8627H59.981H60.0993H60.2175H60.3358H60.454H60.6906H60.9271H61.0454H61.1636H61.4001H61.5184V24.9134V24.7954V24.6773L61.6367 24.4412C61.6367 24.0869 61.2819 23.8508 60.9271 23.6147H60.6906H60.454H60.3358H59.981H59.7445H59.5079H59.2714H58.9166H58.6801L58.4436 23.7327H58.2071H57.9705L57.734 23.8508H57.4975H57.3792L57.261 23.9689H57.1427L57.0244 24.0869L57.6157 22.0797L57.734 21.9616H57.9705L58.2071 21.8436H58.3253L58.5618 21.7255H58.7984H59.0349H59.1532H59.3897H59.6262L59.8627 21.6074H60.2175H60.454H60.6906L60.9271 21.7255H61.2819H61.5184H61.7549L61.9915 21.8436H62.228L62.4645 21.9616L62.8193 22.0797L63.0558 22.1978L63.2923 22.4339L63.4106 22.552L63.6471 22.7881L63.7654 23.0243L63.8837 23.2604L64.0019 23.4966L64.1202 23.7327V24.0869L64.0019 24.4412L63.1741 28.8098ZM61.1636 26.6845V26.5665H61.0454L60.9271 26.4484H60.8088H60.6906H60.5723H60.454L60.2175 26.5665H60.0993H59.981H59.8627H59.7445H59.6262V26.6845H59.5079H59.3897H59.2714L59.1532 26.8026H59.0349L58.9166 26.9207L58.7984 27.0387L58.6801 27.1568H58.5618L58.4436 27.2749V27.393L58.3253 27.511V27.6291L58.2071 27.8653V28.1014L58.3253 28.3375V28.4556L58.4436 28.5737L58.5618 28.6918L58.6801 28.8098H58.9166H59.0349H59.2714H59.5079L59.7445 28.6918H59.8627L60.0993 28.5737L60.2175 28.4556H60.3358L60.454 28.3375L60.5723 28.2195L60.6906 28.1014L60.8088 27.9833H60.9271V27.8653L61.0454 27.7472V27.6291V27.511V27.2749L61.1636 27.0387V26.8026V26.6845Z" fill="#FEFEFE"/>
<path d="M63.7654 30.699H66.1306L66.9585 25.9761V25.7399V25.6218L67.0767 25.3857V25.2676L67.195 25.0315L67.3132 24.9134L67.4315 24.6773L67.5498 24.5592L67.668 24.4411L67.7863 24.3231L68.0228 24.205L68.2593 24.0869L68.4959 23.9688L68.7324 23.8508H69.0872H69.3237H69.442H69.5602L69.915 21.7255H69.6785H69.442L69.3237 21.8435H69.0872L68.8507 21.9616H68.7324L68.6141 22.0797L68.3776 22.1978L68.2593 22.3158L68.1411 22.4339L68.0228 22.552L67.9046 22.67L67.7863 22.7881L67.5498 23.0243L67.4315 23.1423L67.3132 23.2604L67.668 21.8435H65.3028L63.7654 30.699Z" stroke="#FEFEFE" stroke-width="0.0693333"/>
<path d="M41.7687 30.699H44.134L44.9618 25.9761V25.7399L45.0801 25.6218V25.3857L45.1983 25.2676V25.1496L45.3166 24.9134L45.4348 24.7953L45.5531 24.6773L45.6714 24.5592L45.7896 24.4411L46.0262 24.3231L46.1444 24.205L46.3809 24.0869H46.6175H46.9723L47.327 23.9688H47.4453V24.0869H47.5636V23.9688V23.7327L47.6818 23.6146V23.3785L47.8001 23.1423V22.9062L47.9184 22.67V22.552L48.0366 22.3158L48.1549 22.1978L48.2731 22.0797V21.9616L48.3914 21.8435V21.7255H48.2731H48.1549H48.0366H47.8001H47.5636L47.327 21.8435H47.0905L46.9723 21.9616H46.7357L46.6175 22.0797L46.4992 22.1978L46.2627 22.3158L46.1444 22.4339L46.0262 22.552L45.9079 22.67L45.7896 22.7881L45.6714 23.0243L45.5531 23.1423L45.4348 23.2604L45.7896 21.8435H43.3061L41.7687 30.699Z" stroke="#FEFEFE" stroke-width="0.0693333"/>
</g>
<defs>
<clipPath id="gclip0_104_1898">
<rect width="82" height="49" fill="white"/>
</clipPath>
</defs>
</symbol><symbol viewBox="0 0 208 45" fill="none" id="svg-pb-24" xmlns="http://www.w3.org/2000/svg">
<path fill-rule="evenodd" clip-rule="evenodd" d="M14.864 38.0183L0.688431 38.0022L0.704345 23.6531L14.8799 23.6692L14.864 38.0183Z" fill="black"/>
<path fill-rule="evenodd" clip-rule="evenodd" d="M49.139 38.6044H42.8004V16.2505H65.6036V38.6044H59.2687V20.5899H49.139V38.6044ZM68.6738 21.9468V44.0801H74.508V36.5064C76.463 38.6216 79.6494 38.7828 80.4206 38.7828C85.9855 38.7828 89.3996 35.2426 89.3996 30.0891C89.3996 24.7274 86.0235 21.3396 80.5332 21.3396C79.1524 21.3396 76.463 21.5626 74.2424 23.8922H74.1212L74.164 21.9468H68.6738ZM74.2436 30.0296C74.2436 25.4944 77.0407 24.6059 78.8035 24.6059C80.5332 24.6059 83.3353 25.4944 83.3353 30.0296C83.3353 32.8387 82.1491 35.5239 78.8035 35.5239C75.3894 35.5239 74.2424 32.8387 74.2424 30.0296H74.2436ZM103.871 36.2253C101.722 38.2426 99.6469 38.7828 97.3467 38.7828C91.0535 38.7828 90.8172 34.0556 90.8172 32.1089V21.9468H96.6539V31.3419C96.6539 34.5648 97.7715 35.5252 99.9187 35.5252C103.606 35.5252 103.871 32.2316 103.871 31.0482V21.9468H109.701V38.1719H103.871V36.2253ZM118.069 31.3419H121.64C124.403 31.3419 124.982 32.1646 124.982 33.2526C124.982 33.9589 124.598 34.913 121.718 34.913H118.07V31.3419H118.069ZM112.24 21.9468V38.1732H123.826C128.052 38.1732 130.968 37.343 130.968 34.0308C130.968 31.4682 129.546 30.3481 126.321 29.7768V29.6789C128.43 29.3939 130.275 28.0767 130.275 25.8761C130.275 21.948 125.668 21.948 123.868 21.948H112.24V21.9468ZM118.069 25.2057H121.217C122.872 25.2057 124.288 25.4597 124.288 26.8029C124.288 28.2713 122.064 28.306 121.105 28.306H118.069V25.2044V25.2057ZM138.341 27.1871C138.341 24.7906 140.865 24.6059 141.906 24.6059C142.561 24.6059 144.981 24.6369 145.052 26.7447V27.1871C144.939 28.788 143.405 28.4596 139.105 29.0086C135.57 29.4856 131.854 30.3828 131.854 34.0865C131.854 35.4297 132.425 38.7828 138.645 38.7828C141.026 38.7828 143.633 38.1732 145.169 36.5735H145.286L145.783 38.1719H151.919V37.8907C150.81 37.6627 150.739 36.5735 150.775 34.8238L150.89 27.4101C150.926 25.5266 150.739 21.3396 141.942 21.3396C139.837 21.3396 133.041 21.5317 132.772 27.1871H138.341ZM145.095 31.467C145.095 34.7259 142.255 35.5252 140.827 35.5252C139.762 35.5252 137.839 35.172 137.839 33.6367C137.839 31.8164 140.025 31.4683 141.256 31.3109C143.519 30.9862 143.329 31.0792 145.095 30.4422V31.467ZM151.541 25.2044V21.9455H170.273V25.2044H163.826V38.1732H157.987V25.2044H151.541Z" fill="#74B027"/>
<path fill-rule="evenodd" clip-rule="evenodd" d="M0.448227 38.2351H15.0657V23.6382H0.448227V38.2351Z" fill="#363636"/>
<path fill-rule="evenodd" clip-rule="evenodd" d="M30.0952 8.62779V30.5207H27.1206C25.8303 19.6957 19.018 12.8954 8.17457 11.6054V8.62779H30.0964H30.0952ZM0.447815 0.912964V19.0737H4.31242C14.4789 19.0737 19.6386 24.2222 19.6386 34.3769V38.2343H37.8244V0.912964H0.447815Z" fill="#74B027"/>
<path d="M188.547 33.8226V38.0864H172.65C172.822 36.4745 173.339 34.9499 174.2 33.5122C175.06 32.0637 176.761 30.147 179.299 27.7619C181.344 25.8342 182.597 24.5273 183.06 23.8412C183.684 22.8938 183.995 21.9571 183.995 21.0313C183.995 20.0077 183.721 19.2235 183.173 18.679C182.635 18.1235 181.887 17.8458 180.93 17.8458C179.982 17.8458 179.23 18.1344 178.67 18.7117C178.111 19.2889 177.788 20.2472 177.702 21.5868L173.182 21.1294C173.452 18.6028 174.296 16.7894 175.716 15.6895C177.136 14.5895 178.913 14.0396 181.043 14.0396C183.377 14.0396 185.212 14.6766 186.545 15.9508C187.879 17.2251 188.547 18.8097 188.547 20.7047C188.547 21.7829 188.353 22.812 187.966 23.7922C187.589 24.7615 186.987 25.7798 186.158 26.8471C185.61 27.555 184.62 28.5733 183.188 29.9019C181.757 31.2306 180.849 32.1128 180.461 32.5484C180.085 32.984 179.778 33.4088 179.542 33.8226H188.547ZM200.521 38.0864V33.2671H190.838V29.2485L201.103 14.0396H204.911V29.2322H207.849V33.2671H204.911V38.0864H200.521ZM200.521 29.2322V21.0477L195.083 29.2322H200.521Z" fill="#363636"/>
</symbol><symbol viewBox="0 0 34 34" fill="none" id="svg-telegram" xmlns="http://www.w3.org/2000/svg">
<path d="M17.1534 33.5115C26.2066 33.5115 33.5456 26.1724 33.5456 17.1193C33.5456 8.06613 26.2066 0.727081 17.1534 0.727081C8.10028 0.727081 0.76123 8.06613 0.76123 17.1193C0.76123 26.1724 8.10028 33.5115 17.1534 33.5115Z" fill="#34AADF"/>
<path d="M7.7883 16.7603C7.7883 16.7603 15.9082 13.3058 18.7243 12.0894C19.8038 11.6029 23.4648 10.0459 23.4648 10.0459C23.4648 10.0459 25.1545 9.36476 25.0137 11.019C24.9667 11.7002 24.5912 14.0842 24.2158 16.663C23.6525 20.3121 23.0423 24.3018 23.0423 24.3018C23.0423 24.3018 22.9485 25.4209 22.1506 25.6155C21.3527 25.8101 20.0384 24.9343 19.8038 24.7397C19.616 24.5937 16.2836 22.4042 15.0633 21.3338C14.7347 21.0419 14.3593 20.4581 15.1102 19.7769C16.7999 18.1713 18.8181 16.1764 20.0384 14.9114C20.6017 14.3275 21.1649 12.9652 18.8181 14.6194C15.4857 17.0036 12.2002 19.2417 12.2002 19.2417C12.2002 19.2417 11.4493 19.7282 10.0412 19.2903C8.63309 18.8525 6.99034 18.2686 6.99034 18.2686C6.99034 18.2686 5.86395 17.5388 7.7883 16.7603Z" fill="white"/>
</symbol><symbol viewBox="0 0 28 32" fill="none" id="svg-tiktok" xmlns="http://www.w3.org/2000/svg">
<path fill-rule="evenodd" clip-rule="evenodd" d="M20.401 11.8373C22.4105 13.2659 24.8171 14.0291 27.2826 14.0199V9.13351C26.7979 9.13486 26.3145 9.08297 25.8412 8.97878V12.8716C23.3701 12.876 20.96 12.1039 18.9514 10.6646V20.7142C18.9453 22.3632 18.4931 23.9799 17.6427 25.3928C16.7922 26.8056 15.5753 27.962 14.1209 28.7393C12.6665 29.5166 11.0289 29.8858 9.38168 29.8078C7.73447 29.7298 6.13906 29.2075 4.76465 28.2962C6.03595 29.5825 7.66036 30.4626 9.43218 30.8251C11.204 31.1876 13.0435 31.0161 14.7179 30.3324C16.3922 29.6487 17.826 28.4836 18.8376 26.9845C19.8493 25.4854 20.3934 23.7199 20.401 21.9114V11.8373ZM22.1845 6.85321C21.1626 5.74556 20.5356 4.33113 20.401 2.8301V2.19488H19.0328C19.202 3.149 19.57 4.05686 20.113 4.85942C20.656 5.66199 21.3618 6.34131 22.1845 6.85321ZM7.93264 24.4278C7.45843 23.8077 7.16783 23.0669 7.09389 22.2898C7.01996 21.5127 7.16568 20.7304 7.51445 20.032C7.86323 19.3336 8.40106 18.7471 9.06673 18.3393C9.7324 17.9316 10.4992 17.7188 11.2798 17.7254C11.7108 17.7252 12.1392 17.7912 12.5503 17.9208V12.8716C12.0698 12.808 11.5852 12.7807 11.1006 12.7901V16.7155C10.0998 16.3992 9.01664 16.4711 8.06647 16.917C7.1163 17.3629 6.36879 18.1502 5.97262 19.1221C5.57644 20.0941 5.56063 21.1796 5.92833 22.1627C6.29603 23.1458 7.02029 23.9544 7.95707 24.4278H7.93264Z" fill="#EE1D52"/>
<path fill-rule="evenodd" clip-rule="evenodd" d="M18.9507 10.632C20.9594 12.0714 23.3694 12.8434 25.8405 12.839V8.9462C24.4326 8.64852 23.1536 7.91645 22.1839 6.85321C21.3611 6.34131 20.6553 5.66199 20.1123 4.85942C19.5693 4.05686 19.2013 3.149 19.0322 2.19488H15.4326V21.9114C15.4292 22.7841 15.1526 23.6338 14.6417 24.3413C14.1307 25.0488 13.411 25.5786 12.5836 25.8562C11.7562 26.1338 10.8627 26.1453 10.0284 25.8891C9.19413 25.6329 8.46102 25.1219 7.932 24.4278C7.0936 24.0048 6.42218 23.3117 6.02605 22.4602C5.62993 21.6088 5.53221 20.6487 5.74865 19.7349C5.9651 18.8212 6.48309 18.0069 7.21906 17.4237C7.95502 16.8404 8.86603 16.5221 9.8051 16.5201C10.236 16.5214 10.6642 16.5873 11.0756 16.7155V12.7901C9.29822 12.8328 7.57201 13.3935 6.10883 14.4034C4.64565 15.4133 3.50918 16.8284 2.83892 18.4751C2.16867 20.1217 1.9938 21.9283 2.33577 23.6729C2.67775 25.4176 3.52169 27.0244 4.764 28.2962C6.1387 29.214 7.73662 29.7417 9.38754 29.8232C11.0385 29.9046 12.6805 29.5367 14.1389 28.7586C15.5972 27.9806 16.8172 26.8215 17.6689 25.4049C18.5206 23.9882 18.972 22.3671 18.9752 20.7142L18.9507 10.632Z" fill="black"/>
<path fill-rule="evenodd" clip-rule="evenodd" d="M25.841 8.94586V7.8953C24.548 7.90079 23.2801 7.53932 22.1844 6.85287C23.1516 7.91918 24.4317 8.65185 25.841 8.94586ZM19.0327 2.19454C19.0327 2.00723 18.9757 1.81177 18.9512 1.62446V0.989235H13.9834V20.7139C13.9791 21.8183 13.5368 22.8759 12.7535 23.6546C11.9703 24.4333 10.91 24.8694 9.80558 24.8673C9.15526 24.8705 8.5134 24.7198 7.93248 24.4275C8.4615 25.1216 9.19461 25.6326 10.0289 25.8888C10.8632 26.145 11.7567 26.1334 12.5841 25.8558C13.4115 25.5782 14.1312 25.0485 14.6422 24.341C15.1531 23.6335 15.4297 22.7837 15.433 21.911V2.19454H19.0327ZM11.076 12.7817V11.6659C9.03182 11.3882 6.95381 11.8111 5.18068 12.8656C3.40755 13.9201 2.04385 15.544 1.31183 17.4728C0.579806 19.4016 0.522629 21.5214 1.14961 23.4868C1.7766 25.4522 3.05078 27.1473 4.76449 28.2959C3.53158 27.0211 2.69662 25.4149 2.36163 23.6735C2.02663 21.932 2.2061 20.1306 2.87811 18.4895C3.55011 16.8483 4.68557 15.4384 6.14574 14.432C7.60592 13.4256 9.32761 12.8663 11.1005 12.8224L11.076 12.7817Z" fill="#69C9D0"/>
</symbol><symbol viewBox="0 0 32 26" fill="none" id="svg-twitter" xmlns="http://www.w3.org/2000/svg">
<path d="M31.1767 3.4096C30.186 3.83596 29.1445 4.13285 28.0779 4.29294C28.5766 4.20746 29.3103 3.30987 29.6024 2.94656C30.0461 2.39855 30.3842 1.77295 30.5997 1.10153C30.5997 1.05167 30.6495 0.980429 30.5997 0.944811C30.5746 0.931094 30.5464 0.923906 30.5178 0.923906C30.4891 0.923906 30.461 0.931094 30.4358 0.944811C29.2777 1.572 28.045 2.05068 26.7671 2.36955C26.7226 2.38315 26.6752 2.38437 26.63 2.37308C26.5848 2.36178 26.5436 2.3384 26.5107 2.30543C26.4112 2.18699 26.3041 2.07515 26.1901 1.97062C25.6689 1.50363 25.0776 1.12141 24.4377 0.837956C23.574 0.483608 22.641 0.330147 21.7093 0.389164C20.8053 0.446259 19.9226 0.688741 19.1163 1.10153C18.3223 1.53673 17.6244 2.12797 17.0647 2.83971C16.4759 3.57227 16.0508 4.42243 15.8181 5.333C15.6261 6.19913 15.6043 7.09432 15.7539 7.96876C15.7539 8.11835 15.7539 8.13973 15.6257 8.11835C10.5465 7.37037 6.37918 5.56808 2.97406 1.69992C2.82446 1.52895 2.7461 1.52895 2.625 1.69992C1.14328 3.951 1.86277 7.51284 3.71492 9.27239C3.96425 9.50747 4.2207 9.73543 4.4914 9.94914C3.6422 9.88885 2.81374 9.65872 2.05511 9.27239C1.91263 9.17978 1.83427 9.22965 1.82715 9.40062C1.80695 9.63764 1.80695 9.87596 1.82715 10.113C1.97579 11.2489 2.42345 12.325 3.12437 13.2312C3.82528 14.1374 4.7543 14.8411 5.81641 15.2705C6.07532 15.3814 6.34511 15.465 6.62138 15.5199C5.83523 15.6746 5.02894 15.6987 4.23495 15.5911C4.06398 15.5555 3.99987 15.6481 4.06398 15.8119C5.11116 18.6614 7.38362 19.5305 9.05056 20.0149C9.27851 20.0505 9.50647 20.0505 9.76293 20.1075C9.76293 20.1075 9.76293 20.1075 9.72018 20.1502C9.22865 21.0478 7.24114 21.6533 6.32931 21.9668C4.66499 22.5646 2.89051 22.7931 1.12903 22.6364C0.851204 22.5937 0.787091 22.6008 0.715854 22.6364C0.644618 22.672 0.715854 22.7504 0.794215 22.8216C1.1504 23.0567 1.50658 23.2633 1.87701 23.4628C2.97979 24.0642 4.14565 24.5421 5.35337 24.8875C11.608 26.6114 18.6462 25.3434 23.3407 20.6774C27.0307 17.0158 28.3272 11.9651 28.3272 6.90733C28.3272 6.71499 28.5623 6.60101 28.6977 6.50128C29.6312 5.77388 30.4543 4.91483 31.1411 3.951C31.26 3.80733 31.321 3.6244 31.312 3.4381C31.312 3.33124 31.312 3.35261 31.1767 3.4096Z" fill="#33CCFF"/>
</symbol><symbol viewBox="0 0 26 28" fill="none" id="svg-viber" xmlns="http://www.w3.org/2000/svg">
<path d="M6.97756 24.3612C6.97756 23.9163 6.97756 23.4713 6.97756 23.0264C6.98074 23.0082 6.98009 22.9896 6.97567 22.9716C6.97124 22.9537 6.96312 22.9368 6.95182 22.9221C6.94051 22.9074 6.92626 22.8951 6.90994 22.886C6.89363 22.877 6.87559 22.8713 6.85696 22.8694C5.73732 22.5561 4.7039 21.9979 3.83373 21.2365C3.19971 20.6684 2.67182 19.9952 2.27408 19.2474C1.71346 18.1671 1.34037 17.0021 1.17026 15.8005C0.959492 14.2933 0.886293 12.7705 0.951541 11.2504C0.96585 10.5417 1.00264 9.84106 1.08441 9.13237C1.21481 7.78564 1.55971 6.46754 2.10646 5.2265C2.78159 3.70059 4.00636 2.47489 5.54464 1.78571C6.59252 1.3134 7.69492 0.968597 8.82747 0.758912C9.93812 0.551707 11.0626 0.42453 12.1921 0.378392C13.2101 0.342931 14.2294 0.357714 15.246 0.422685C16.7009 0.483175 18.1427 0.720534 19.5386 1.12937C20.5735 1.42321 21.558 1.86769 22.4596 2.4481C23.338 3.04206 24.0485 3.84647 24.5241 4.78558C25.0833 5.88242 25.4634 7.05923 25.6504 8.27268C25.7719 8.9931 25.8518 9.71974 25.8896 10.4491C25.9427 11.3531 25.9366 12.2611 25.9019 13.1611C25.8671 14.061 25.7894 14.9348 25.677 15.8166C25.5349 17.1402 25.1218 18.4217 24.4628 19.5836C23.605 21.0535 22.2308 22.1634 20.5995 22.7043C19.484 23.089 18.3322 23.3629 17.1613 23.5217C16.3048 23.6384 15.4463 23.723 14.5837 23.7572C13.9234 23.7874 13.2632 23.7794 12.6029 23.7693C12.2289 23.7693 11.8568 23.7331 11.4848 23.7009C11.4483 23.6941 11.4105 23.6981 11.3763 23.7124C11.3421 23.7268 11.313 23.7508 11.2927 23.7814C10.5404 24.6713 9.75958 25.537 8.9726 26.3987C8.82925 26.5559 8.66328 26.6916 8.47997 26.8014C8.35965 26.8791 8.22245 26.9279 8.07945 26.9438C7.93645 26.9597 7.79165 26.9423 7.65676 26.8929C7.52187 26.8435 7.40066 26.7636 7.30291 26.6596C7.20517 26.5555 7.13363 26.4303 7.09407 26.294C7.01617 26.0519 6.97754 25.7991 6.9796 25.5451C6.97756 25.1464 6.97756 24.7538 6.97756 24.3612ZM7.88718 26.0504L7.98326 25.9618L9.69008 24.0955C10.3469 23.3774 11.0031 22.6586 11.6586 21.9392C11.6908 21.8953 11.7342 21.8606 11.7845 21.8387C11.8348 21.8168 11.8901 21.8084 11.9447 21.8144C12.1675 21.8365 12.3903 21.8446 12.6152 21.8466C13.392 21.8466 14.1687 21.8466 14.9455 21.7922C15.6507 21.7379 16.3539 21.6533 17.0529 21.5446C17.8056 21.4155 18.5507 21.2468 19.2851 21.0392C20.9204 20.6064 22.1857 19.6802 22.9808 18.1803C23.4503 17.2581 23.7447 16.2592 23.8496 15.2328C23.9738 14.2653 24.0482 13.2923 24.0724 12.3175C24.1086 11.0928 24.0237 9.86765 23.8189 8.65924C23.6769 7.78373 23.4214 6.9298 23.0585 6.11841C22.5965 5.11174 21.9424 4.27822 20.9347 3.74267C19.3894 2.92123 17.7173 2.55481 15.9941 2.36757C15.5056 2.31522 15.017 2.28703 14.5264 2.26891C13.5219 2.2179 12.5153 2.22328 11.5114 2.28502C10.7894 2.33779 10.0713 2.43326 9.36098 2.57091C8.31635 2.75847 7.30577 3.09772 6.36228 3.57758C5.81531 3.8498 5.31907 4.21127 4.89462 4.64666C4.20671 5.40395 3.70211 6.30503 3.41877 7.28212C3.08265 8.42006 2.89917 9.59644 2.873 10.7813C2.80723 11.9661 2.82225 13.154 2.91797 14.3368C2.97752 15.0408 3.09718 15.7385 3.27569 16.4227C3.54127 17.4888 4.0565 18.4789 4.78015 19.3138C5.56141 20.1656 6.57116 20.7826 7.69299 21.0936C7.83404 21.1359 7.8974 21.1842 7.8974 21.3412C7.88514 21.9211 7.8974 22.5009 7.8974 23.0808L7.88718 26.0504Z" fill="#754A91"/>
<path d="M6.45681 8.06747C6.4425 7.62655 6.68575 7.30643 6.9801 7.01853C7.36832 6.65224 7.79603 6.32885 8.25562 6.05414C8.46519 5.92684 8.71438 5.87833 8.95736 5.91754C9.20034 5.95675 9.42079 6.08104 9.57816 6.26755C10.1342 6.84327 10.6319 7.47105 11.0642 8.14197C11.2783 8.44377 11.4399 8.77852 11.5425 9.13253C11.5835 9.27068 11.5862 9.41713 11.5503 9.55664C11.5143 9.69614 11.4411 9.82361 11.3381 9.92578C11.1023 10.1538 10.851 10.3657 10.5859 10.56C10.4523 10.6648 10.353 10.806 10.3003 10.9661C10.2476 11.1261 10.2439 11.2978 10.2895 11.4599C10.4532 12.2211 10.8242 12.9241 11.3627 13.4934C12.017 14.2802 12.86 14.8939 13.8156 15.2792C14.0504 15.3982 14.3194 15.4344 14.578 15.3819C14.7197 15.3439 14.8455 15.2629 14.9378 15.1504C15.0809 14.9712 15.2362 14.798 15.365 14.6068C15.532 14.3682 15.7871 14.2033 16.0758 14.1473C16.3644 14.0912 16.6639 14.1485 16.9104 14.3068C17.6033 14.7028 18.2574 15.1611 18.8645 15.6759C19.0076 15.7967 19.1568 15.9134 19.2999 16.0363C19.4692 16.1634 19.5915 16.3418 19.648 16.544C19.7045 16.7462 19.6921 16.9611 19.6127 17.1557C19.4864 17.4829 19.3023 17.7855 19.0689 18.0496C18.7789 18.4466 18.4096 18.7809 17.9835 19.0321C17.7798 19.1499 17.551 19.2191 17.3153 19.2341C17.0796 19.2491 16.8436 19.2096 16.6262 19.1187C14.9724 18.4628 13.4271 17.5678 12.0413 16.4631C10.6859 15.364 9.50131 14.0752 8.52544 12.6377C7.70431 11.4477 7.05104 10.1534 6.58355 8.79026C6.53377 8.62539 6.49283 8.45805 6.4609 8.28894C6.45181 8.21545 6.45044 8.14124 6.45681 8.06747Z" fill="#754A91"/>
<path d="M13.5141 5.9252C14.8978 5.9504 16.2286 6.45312 17.2746 7.34572C18.3205 8.23831 19.0152 9.46416 19.2376 10.8096C19.3271 11.2987 19.375 11.7944 19.3807 12.2914C19.3807 12.4081 19.35 12.4927 19.2233 12.5048C19.0965 12.5169 19.0638 12.4102 19.0638 12.3034C19.0828 11.2981 18.8733 10.3014 18.4506 9.38613C18.0946 8.63408 17.5673 7.97306 16.9096 7.4545C16.252 6.93595 15.4817 6.57383 14.6588 6.39632C14.2237 6.29711 13.7788 6.24579 13.3322 6.24331C13.2887 6.24405 13.2453 6.23862 13.2034 6.2272C13.1677 6.21729 13.1373 6.19412 13.1186 6.16257C13.0999 6.13102 13.0944 6.09356 13.1032 6.05808C13.1035 6.04125 13.1071 6.02464 13.114 6.00922C13.1208 5.9938 13.1307 5.97987 13.1431 5.96825C13.1555 5.95663 13.1701 5.94756 13.186 5.94155C13.202 5.93554 13.219 5.93272 13.2361 5.93326C13.3281 5.92118 13.4221 5.9252 13.5141 5.9252Z" fill="#754A91"/>
<path d="M17.4598 11.3853C17.453 10.8259 17.3131 10.276 17.0515 9.77948C16.7899 9.28299 16.4137 8.8538 15.9533 8.52633C15.4159 8.15453 14.7912 7.92379 14.1381 7.85589C14.0278 7.8418 13.9174 7.83576 13.805 7.82368C13.6925 7.8116 13.6251 7.76529 13.6353 7.65255C13.6455 7.5398 13.7171 7.49953 13.8397 7.50758C15.6508 7.6163 17.192 8.62499 17.6663 10.5034C17.753 10.8656 17.7962 11.2366 17.795 11.6087C17.795 11.643 17.795 11.6772 17.795 11.7094C17.795 11.8101 17.7296 11.8765 17.6295 11.8745C17.6073 11.8738 17.5854 11.8686 17.5653 11.8593C17.5452 11.8499 17.5272 11.8367 17.5125 11.8203C17.4978 11.8039 17.4866 11.7847 17.4796 11.7639C17.4727 11.7431 17.4701 11.7212 17.4721 11.6993C17.4557 11.6047 17.4598 11.5081 17.4598 11.3853Z" fill="#754A91"/>
<path d="M14.2869 9.14257C15.2804 9.20901 15.9733 9.68818 16.1634 10.7291C16.1865 10.8624 16.2028 10.9968 16.2125 11.1317C16.2125 11.2405 16.1879 11.3331 16.0673 11.3331C15.9467 11.3331 15.9059 11.2525 15.9018 11.1317C15.9006 10.7327 15.7758 10.3436 15.544 10.0164C15.3005 9.71997 14.9508 9.52685 14.567 9.47678C14.4812 9.46097 14.3945 9.45022 14.3074 9.44457C14.1643 9.44457 14.0846 9.3741 14.103 9.26538C14.1214 9.15666 14.2072 9.13653 14.2869 9.14257Z" fill="#754A91"/>
</symbol><symbol viewBox="0 0 160 51" fill="none" id="svg-visa" xmlns="http://www.w3.org/2000/svg">
<g clip-path="url(#mclip0_104_1875)">
<path fill-rule="evenodd" clip-rule="evenodd" d="M140.372 14.4718L143.726 30.3385C143.814 30.8616 144.079 32.0821 144.167 32.6923H133.664L136.93 23.5385C137.547 22.0564 138.077 20.4872 138.607 19.0052L139.842 15.6052C139.931 15.3436 140.019 15.2564 140.107 14.9949L140.372 14.4718ZM113.54 50.2154H127.132C127.397 49.7795 127.574 49.0821 127.839 48.4718C128.103 47.6872 129.692 43.5026 129.78 42.9795H146.374C146.374 43.677 147.786 49.518 147.963 50.2154H159.966C159.79 49.8667 159.437 47.8616 159.26 47.1641C157.848 41.2359 156.789 34.6103 155.377 28.6821L154.053 22.4052C153.788 21.4462 153.611 20.4 153.347 19.3539L150.081 3.74875C149.904 2.87695 149.728 0.871826 149.198 0.871826H139.931C138.342 0.871826 136.93 1.04619 135.782 1.48208C133.046 2.78977 132.428 5.84106 131.193 8.71798L113.54 50.2154Z" fill="#24449B"/>
<path fill-rule="evenodd" clip-rule="evenodd" d="M0.0337677 2.35381L7.27133 4.35894C8.94833 4.88202 12.4788 6.27689 13.7145 7.14869C15.5681 8.54356 15.9211 10.9846 16.5389 13.5128C17.1568 16.041 17.8629 18.3948 18.4807 20.923C20.599 29.3795 23.0704 38.0102 25.1887 46.4666C25.3652 47.3384 26.0713 49.6051 26.0713 50.2154H39.6638C40.0169 50.2154 40.8995 47.8615 41.076 47.3384L50.3437 25.5436C51.2263 23.4513 52.1089 21.5333 52.9915 19.3538C55.1099 14.4718 57.6695 8.54356 59.6113 3.74869C59.8761 3.13843 60.0526 2.78971 60.3174 2.17946C60.4056 1.83074 60.4939 1.74356 60.6704 1.39484C60.7587 1.1333 60.9352 0.871763 60.4056 0.871763H47.5192C46.9897 0.871763 46.7249 1.91792 46.4601 2.70253C45.4892 5.49228 43.4591 10.2 42.3117 13.1641L34.7211 32.082C34.3681 32.7795 34.015 33.6513 33.8385 34.2615C33.662 34 33.5737 33.4769 33.4854 32.6923L31.1023 20.4C30.661 18.0461 30.2197 15.7795 29.7784 13.4256C29.3371 11.0718 28.8958 8.8051 28.4544 6.45125C27.3953 0.087148 22.0995 0.871763 17.3333 0.871763C11.6845 0.871763 6.03565 0.871763 0.38682 0.871763C0.298557 1.30766 0.210294 2.0051 0.0337677 2.35381Z" fill="#222965"/>
<path fill-rule="evenodd" clip-rule="evenodd" d="M82.7362 15.6051C82.7362 19.0923 83.0892 20.7487 85.2958 23.5384C86.708 25.3692 89.0028 27.0256 90.9446 28.159L93.1512 29.2923C93.6808 29.5538 94.1221 29.8154 94.6517 30.0769C96.6817 31.0359 100.654 33.1282 100.654 35.482C100.654 37.4 99.9474 38.6205 98.3587 39.4051C95.5343 40.8 94.1221 40.6256 91.0329 40.6256C88.8263 40.6256 86.6197 40.1025 84.8545 39.5795C83.9718 39.3179 83.1775 39.0564 82.2948 38.7077C81.7653 38.4461 80.2648 37.6615 79.7352 37.6615L77.3521 48.3846C83.1775 51.1743 94.3869 51.8718 101.271 49.7795C103.478 49.082 105.861 48.0359 107.715 46.7282C111.245 44.1128 113.452 40.8872 114.07 36.5282C114.423 34.3487 114.423 32.4308 113.716 30.3384C111.422 23.8 104.625 21.6205 99.4179 18.5692C98.1822 17.7846 96.1521 16.3897 96.1521 14.7333C96.1521 11.2461 101.007 10.3743 104.096 10.3743C107.626 10.3743 112.039 11.5077 114.334 12.7282C114.599 12.1179 116.453 2.78973 116.717 2.17947C115.129 1.83076 113.805 1.2205 111.157 0.697422C105.949 -0.348731 101.271 -0.174372 96.2404 1.04614C93.1512 1.83076 90.7681 3.13845 88.4733 4.88204C85.384 7.1487 82.7362 11.682 82.7362 15.6051Z" fill="#233B86"/>
<path fill-rule="evenodd" clip-rule="evenodd" d="M55.5512 50.2154H68.6141L71.262 37.9231C72.8507 29.8154 75.0573 21.0975 76.646 12.9898L78.9409 2.17952C79.1174 1.65644 79.4704 0.871826 78.8526 0.871826H66.584C66.1427 0.871826 66.231 1.22054 65.9662 2.17952L63.6714 12.9898C62.877 17.0872 61.8178 21.2718 60.9352 25.3693C59.7878 31.4718 58.1991 37.9231 56.9634 44.0257C56.6986 45.0718 56.5221 46.0308 56.2573 47.077C56.169 47.6872 56.0808 48.1231 55.9042 48.6462C55.816 49.0821 55.7277 49.9539 55.5512 50.2154Z" fill="#233275"/>
</g>
<defs>
<clipPath id="mclip0_104_1875">
<rect width="160" height="51" fill="white"/>
</clipPath>
</defs>
</symbol><symbol viewBox="0 0 28 28" fill="none" id="svg-whatsapp" xmlns="http://www.w3.org/2000/svg">
<path d="M0.631592 27.5552L2.57597 20.2835C1.00788 17.4508 0.509679 14.1453 1.17279 10.9735C1.83591 7.80176 3.61586 4.97649 6.18602 3.01616C8.75617 1.05582 11.9441 0.0919326 15.1649 0.301355C18.3857 0.510777 21.4232 1.87947 23.7202 4.15627C26.0171 6.43306 27.4193 9.46525 27.6695 12.6964C27.9198 15.9276 27.0012 19.141 25.0824 21.747C23.1636 24.3529 20.3732 26.1767 17.2234 26.8835C14.0736 27.5904 10.7755 27.1329 7.93449 25.5951L0.631592 27.5552ZM8.28662 22.874L8.73827 23.143C10.7961 24.3678 13.1996 24.8746 15.5743 24.5846C17.9489 24.2945 20.1613 23.2237 21.8666 21.5392C23.572 19.8547 24.6745 17.651 25.0024 15.2716C25.3303 12.8922 24.8651 10.4707 23.6794 8.38452C22.4936 6.2983 20.654 4.66454 18.447 3.73783C16.24 2.81113 13.7898 2.64354 11.478 3.26119C9.16631 3.87883 7.12299 5.24701 5.66649 7.15251C4.20999 9.05802 3.42213 11.3938 3.42568 13.7959C3.42374 15.7876 3.97229 17.7408 5.01027 19.438L5.2935 19.9069L4.20649 23.9655L8.28662 22.874Z" fill="#00D95F"/>
<path fill-rule="evenodd" clip-rule="evenodd" d="M19.2483 15.6631C18.9835 15.4486 18.6735 15.2977 18.3419 15.2218C18.0102 15.1458 17.6657 15.1469 17.3346 15.2249C16.837 15.4324 16.5155 16.2165 16.194 16.6085C16.1262 16.7025 16.0265 16.7684 15.9138 16.7939C15.801 16.8194 15.6829 16.8027 15.5816 16.7469C13.7599 16.0305 12.233 14.7166 11.2488 13.0188C11.1649 12.9128 11.1251 12.7783 11.138 12.6435C11.1508 12.5088 11.2153 12.3843 11.3177 12.2962C11.6763 11.9398 11.9396 11.4983 12.0832 11.0125C12.1151 10.4768 11.9929 9.94312 11.7311 9.47518C11.5287 8.81916 11.1435 8.23502 10.6211 7.79178C10.3516 7.67008 10.0529 7.62928 9.76083 7.67429C9.4688 7.7193 9.19597 7.8482 8.97526 8.04544C8.5921 8.37739 8.28798 8.79141 8.08528 9.25702C7.88258 9.72263 7.78648 10.228 7.80404 10.7358C7.80522 11.021 7.84122 11.305 7.91121 11.5814C8.08897 12.2454 8.36233 12.8799 8.72264 13.4646C8.98261 13.9126 9.26625 14.3462 9.57235 14.7637C10.5672 16.135 11.8177 17.2993 13.2544 18.192C13.9754 18.6456 14.746 19.0145 15.5509 19.2912C16.3871 19.6718 17.3103 19.8179 18.2225 19.714C18.7423 19.635 19.2347 19.4289 19.6565 19.1139C20.0784 18.799 20.4166 18.3847 20.6415 17.9076C20.7737 17.6194 20.8138 17.2972 20.7564 16.9852C20.6186 16.3472 19.7689 15.9705 19.2483 15.6631Z" fill="#00D95F"/>
</symbol><symbol viewBox="0 0 35 24" fill="none" id="svg-youtube" xmlns="http://www.w3.org/2000/svg">
<path d="M33.6878 3.74741C33.2961 2.27468 32.1372 1.11286 30.6628 0.714683C27.9969 0.000137589 17.3006 0.000137329 17.3006 0.000137329C17.3006 0.000137329 6.60966 0.000137589 3.9383 0.714683C2.46932 1.10741 1.31046 2.26923 0.913288 3.74741C0.200562 6.42014 0.200562 12.0001 0.200562 12.0001C0.200562 12.0001 0.200562 17.5801 0.913288 20.2529C1.30502 21.7256 2.46388 22.8874 3.9383 23.2856C6.60966 24.0001 17.3006 24.0001 17.3006 24.0001C17.3006 24.0001 27.9969 24.0001 30.6628 23.2856C32.1318 22.8929 33.2907 21.731 33.6878 20.2529C34.4006 17.5801 34.4006 12.0001 34.4006 12.0001C34.4006 12.0001 34.4006 6.42014 33.6878 3.74741Z" fill="#FF3000"/>
<path d="M13.8838 17.1438L22.7684 12.0001L13.8838 6.8565V17.1438Z" fill="white"/>
</symbol></svg>