<svg width="110" height="111" viewBox="0 0 110 111" fill="none" xmlns="http://www.w3.org/2000/svg">
<g filter="url(#filter0_bd_64_215)">
<path d="M86.3029 73.9909C85.9594 74.1892 85.5371 74.342 85.0668 74.4283L69.9111 77.2118C65.609 78.0007 61.7446 78.3298 58.0943 78.2215C50.1083 77.9863 42.6127 76.0934 36.9909 72.8865L18.4803 62.3358C14.6379 60.235 15.3785 55.0739 16.7106 53.4763L29.092 43.3521C29.7923 42.499 31.0016 41.7946 32.4853 41.3712L57.0687 34.3063C59.8172 33.5135 63.1024 33.8012 65.2337 35.0187L83.7578 45.5773C89.3743 48.7778 93.1573 49.1433 93.6695 53.7465C94.3904 58.2523 92.9682 62.0242 91.6567 64.5074L87.0414 73.2727C86.9 73.5457 86.6436 73.791 86.3029 73.9909Z" fill="#05D536" shape-rendering="crispEdges"/>
<path d="M86.3815 74.0356L86.3809 74.0359C86.0256 74.2411 85.5882 74.3994 85.1002 74.489L69.9446 77.2725L69.9445 77.2725C65.6326 78.0632 61.7549 78.3939 58.0887 78.2851C50.076 78.0491 42.5548 76.1499 36.9133 72.9319C36.9133 72.9319 36.9133 72.9319 36.9133 72.9319L18.4044 62.3821C18.4042 62.3819 18.4039 62.3818 18.4036 62.3816C16.4508 61.3136 15.6737 59.4769 15.5448 57.72C15.4157 55.9619 15.9342 54.2605 16.6111 53.4487C16.6138 53.4455 16.6169 53.4425 16.6204 53.4396L28.9963 43.3199C29.7082 42.4558 30.9337 41.7429 32.4364 41.3141L57.0194 34.2493C59.8088 33.4447 63.1453 33.7361 65.3112 34.9734L86.3815 74.0356ZM86.3815 74.0356C86.7345 73.8286 87.0004 73.5743 87.1471 73.291C87.1471 73.291 87.1471 73.2909 87.1472 73.2909L91.7623 64.526C93.0762 62.0381 94.5019 58.2578 93.7795 53.7415C93.5218 51.4277 92.4397 50.1713 90.7087 49.0926C89.8518 48.5585 88.8369 48.0687 87.6934 47.5167L87.6747 47.5077C86.5222 46.9515 85.2359 46.33 83.8354 45.532L65.3113 34.9734L86.3815 74.0356Z" stroke="url(#paint0_linear_64_215)" stroke-width="0.180232" stroke-linecap="round" stroke-linejoin="round" shape-rendering="crispEdges"/>
</g>
<g filter="url(#filter1_b_64_215)">
<mask id="path-3-outside-1_64_215" maskUnits="userSpaceOnUse" x="5.31593" y="23.1947" width="105.657" height="60.996" fill="black">
<rect fill="white" x="5.31593" y="23.1947" width="105.657" height="60.996"/>
<path d="M86.3026 69.4475C85.9592 69.6458 85.5369 69.7986 85.0665 69.885L69.9109 72.6684C65.6088 73.4574 61.7444 73.7865 58.0941 73.6781C50.1081 73.443 42.6125 71.55 36.9906 68.3432L18.4801 57.7925C16.3433 56.575 15.809 54.6835 17.1411 53.086L29.0917 38.8088C29.7921 37.9557 31.0014 37.2513 32.4851 36.8278L57.0685 29.7629C59.817 28.9702 63.1022 29.2579 65.2335 30.4754L83.7576 41.034C89.3741 44.2345 92.7474 48.5323 93.2596 53.1354C93.494 55.2472 92.9679 57.4809 91.6565 59.9641L87.0412 68.7293C86.8998 69.0024 86.6434 69.2477 86.3026 69.4475Z"/>
</mask>
<path d="M86.3026 69.4475C85.9592 69.6458 85.5369 69.7986 85.0665 69.885L69.9109 72.6684C65.6088 73.4574 61.7444 73.7865 58.0941 73.6781C50.1081 73.443 42.6125 71.55 36.9906 68.3432L18.4801 57.7925C16.3433 56.575 15.809 54.6835 17.1411 53.086L29.0917 38.8088C29.7921 37.9557 31.0014 37.2513 32.4851 36.8278L57.0685 29.7629C59.817 28.9702 63.1022 29.2579 65.2335 30.4754L83.7576 41.034C89.3741 44.2345 92.7474 48.5323 93.2596 53.1354C93.494 55.2472 92.9679 57.4809 91.6565 59.9641L87.0412 68.7293C86.8998 69.0024 86.6434 69.2477 86.3026 69.4475Z" fill="url(#paint1_linear_64_215)"/>
<path d="M86.7195 69.6882C86.9498 69.5553 86.9498 69.3398 86.7195 69.2069C86.4893 69.074 86.116 69.074 85.8858 69.2069L86.7195 69.6882ZM85.0665 69.885L84.8878 69.5606L84.8878 69.5606L85.0665 69.885ZM69.9109 72.6684L70.0894 72.9928L70.0896 72.9928L69.9109 72.6684ZM58.0941 73.6781L58.1244 73.3382L58.1242 73.3382L58.0941 73.6781ZM36.9906 68.3432L37.405 68.1011L37.4049 68.101L36.9906 68.3432ZM18.4801 57.7925L18.8943 57.5503L18.8942 57.5502L18.4801 57.7925ZM17.1411 53.086L16.6103 52.9379L16.6099 52.9384L17.1411 53.086ZM29.0917 38.8088L29.6226 38.9569L29.6245 38.9546L29.0917 38.8088ZM32.4851 36.8278L32.7464 37.133L32.7478 37.1325L32.4851 36.8278ZM57.0685 29.7629L57.3312 30.0676L57.332 30.0674L57.0685 29.7629ZM65.2335 30.4754L64.8188 30.7173L64.8193 30.7176L65.2335 30.4754ZM83.7576 41.034L83.3434 41.2761L83.3434 41.2762L83.7576 41.034ZM93.2596 53.1354L93.848 53.1137L93.848 53.1136L93.2596 53.1354ZM91.6565 59.9641L91.0925 59.8648L91.0924 59.8651L91.6565 59.9641ZM87.0412 68.7293L86.4771 68.6303L86.4763 68.6319L87.0412 68.7293ZM85.8825 69.2088C85.6541 69.3428 85.657 69.5582 85.8891 69.6901C86.1211 69.822 86.4944 69.8203 86.7228 69.6863L85.8825 69.2088ZM85.8858 69.2069C85.6056 69.3686 85.2639 69.4916 84.8878 69.5606L85.2452 70.2093C85.8098 70.1057 86.3127 69.9231 86.7195 69.6882L85.8858 69.2069ZM84.8878 69.5606L69.7321 72.3441L70.0896 72.9928L85.2453 70.2093L84.8878 69.5606ZM69.7324 72.3441C65.4827 73.1234 61.6899 73.444 58.1244 73.3382L58.0639 74.018C61.7989 74.1289 65.7348 73.7914 70.0894 72.9928L69.7324 72.3441ZM58.1242 73.3382C50.2805 73.1072 42.9224 71.2483 37.405 68.1011L36.5763 68.5853C42.3026 71.8517 49.9356 73.7787 58.0641 74.018L58.1242 73.3382ZM37.4049 68.101L18.8943 57.5503L18.0659 58.0347L36.5764 68.5854L37.4049 68.101ZM18.8942 57.5502C16.9431 56.4386 16.4457 54.7048 17.6724 53.2336L16.6099 52.9384C15.1724 54.6623 15.7436 56.7115 18.066 58.0347L18.8942 57.5502ZM17.672 53.2341L29.6226 38.9569L28.5609 38.6607L16.6103 52.9379L17.672 53.2341ZM29.6245 38.9546C30.267 38.172 31.3794 37.5231 32.7464 37.133L32.2238 36.5227C30.6234 36.9795 29.3173 37.7394 28.559 38.663L29.6245 38.9546ZM32.7478 37.1325L57.3312 30.0676L56.8057 29.4582L32.2224 36.5232L32.7478 37.1325ZM57.332 30.0674C59.8617 29.3378 62.8727 29.6056 64.8188 30.7173L65.6482 30.2335C63.3317 28.9102 59.7723 28.6026 56.805 29.4585L57.332 30.0674ZM64.8193 30.7176L83.3434 41.2761L84.1718 40.7918L65.6477 30.2332L64.8193 30.7176ZM83.3434 41.2762C88.8555 44.4172 92.1682 48.6362 92.6713 53.1573L93.848 53.1136C93.3266 48.4283 89.8927 44.0517 84.1718 40.7917L83.3434 41.2762ZM92.6713 53.1572C92.9002 55.2198 92.3879 57.4121 91.0925 59.8648L92.2204 60.0633C93.5479 57.5497 94.0878 55.2745 93.848 53.1137L92.6713 53.1572ZM91.0924 59.8651L86.4771 68.6303L87.6053 68.8283L92.2206 60.0631L91.0924 59.8651ZM86.4763 68.6319C86.3633 68.8501 86.1578 69.0473 85.8825 69.2088L86.7228 69.6863C87.129 69.4481 87.4363 69.1547 87.6061 68.8268L86.4763 68.6319Z" fill="url(#paint2_linear_64_215)" mask="url(#path-3-outside-1_64_215)"/>
</g>
<g filter="url(#filter2_d_64_215)">
<path d="M19.329 37.3507L20.4367 36.7112C39.3929 25.7679 70.9499 27.5646 85.8379 40.4348L82.3198 46.9592C81.7383 48.0376 80.5832 48.9829 79.0185 49.661L59.4103 52.6166C57.9645 52.8346 56.441 52.8101 55.0183 52.546L36.0164 49.0192L19.329 37.3507Z" fill="#27F171"/>
</g>
<g filter="url(#filter3_b_64_215)">
<path d="M81.3347 50.0646L81.3341 50.065C80.9788 50.2701 80.5414 50.4285 80.0534 50.5181L64.8978 53.3016L64.8977 53.3016C60.5858 54.0923 56.7081 54.4229 53.0419 54.3142C45.0292 54.0782 37.508 52.1789 31.8665 48.9609C31.8665 48.9609 31.8665 48.9609 31.8665 48.9609L13.3577 38.4111C13.3574 38.411 13.3571 38.4108 13.3568 38.4107C11.4041 37.3426 10.6269 35.506 10.498 33.7491C10.3689 31.991 10.8874 30.2896 11.5644 29.4777C11.567 29.4746 11.5701 29.4715 11.5737 29.4686L23.9496 19.3489C24.6614 18.4849 25.887 17.772 27.3896 17.3431L51.9726 10.2783C54.762 9.4738 58.0985 9.7652 60.2645 11.0024L81.3347 50.0646ZM81.3347 50.0646C81.6877 49.8576 81.9536 49.6033 82.1003 49.3201C82.1003 49.32 82.1004 49.32 82.1004 49.32L86.7155 40.555C88.0294 38.0672 89.4551 34.2868 88.7328 29.7705C88.475 27.4568 87.3929 26.2004 85.662 25.1216C84.805 24.5876 83.7901 24.0977 82.6466 23.5458L82.628 23.5368C81.4755 22.9805 80.1891 22.3591 78.7886 21.561L60.2645 11.0025L81.3347 50.0646Z" fill="white" fill-opacity="0.5" stroke="url(#paint3_linear_64_215)" stroke-width="0.180232" stroke-linecap="round" stroke-linejoin="round"/>
</g>
<g filter="url(#filter4_b_64_215)">
<mask id="path-7-outside-2_64_215" maskUnits="userSpaceOnUse" x="0.269495" y="-0.77625" width="105.657" height="60.996" fill="black">
<rect fill="white" x="0.269495" y="-0.77625" width="105.657" height="60.996"/>
<path d="M81.2562 45.4766C80.9127 45.6749 80.4904 45.8277 80.0201 45.914L64.8644 48.6975C60.5623 49.4864 56.698 49.8155 53.0477 49.7072C45.0616 49.472 37.5661 47.5791 31.9442 44.3723L13.4337 33.8215C11.2969 32.6041 10.7626 30.7126 12.0947 29.1151L24.0453 14.8379C24.7457 13.9848 25.955 13.2804 27.4387 12.8569L52.022 5.79198C54.7705 4.99926 58.0558 5.28695 60.187 6.50444L78.7112 17.063C84.3277 20.2635 87.701 24.5613 88.2132 29.1645C88.4475 31.2762 87.9215 33.51 86.61 35.9931L81.9947 44.7584C81.8534 45.0314 81.597 45.2767 81.2562 45.4766Z"/>
</mask>
<path d="M81.2562 45.4766C80.9127 45.6749 80.4904 45.8277 80.0201 45.914L64.8644 48.6975C60.5623 49.4864 56.698 49.8155 53.0477 49.7072C45.0616 49.472 37.5661 47.5791 31.9442 44.3723L13.4337 33.8215C11.2969 32.6041 10.7626 30.7126 12.0947 29.1151L24.0453 14.8379C24.7457 13.9848 25.955 13.2804 27.4387 12.8569L52.022 5.79198C54.7705 4.99926 58.0558 5.28695 60.187 6.50444L78.7112 17.063C84.3277 20.2635 87.701 24.5613 88.2132 29.1645C88.4475 31.2762 87.9215 33.51 86.61 35.9931L81.9947 44.7584C81.8534 45.0314 81.597 45.2767 81.2562 45.4766Z" fill="white" fill-opacity="0.5"/>
<path d="M81.6731 45.7173C81.9033 45.5844 81.9033 45.3688 81.6731 45.2359C81.4428 45.103 81.0696 45.103 80.8393 45.2359L81.6731 45.7173ZM80.0201 45.914L79.8414 45.5897L79.8414 45.5897L80.0201 45.914ZM64.8644 48.6975L65.0429 49.0219L65.0432 49.0218L64.8644 48.6975ZM53.0477 49.7072L53.078 49.3673L53.0777 49.3673L53.0477 49.7072ZM31.9442 44.3723L32.3586 44.1302L32.3584 44.1301L31.9442 44.3723ZM13.4337 33.8215L13.8479 33.5793L13.8478 33.5793L13.4337 33.8215ZM12.0947 29.1151L11.5639 28.967L11.5635 28.9674L12.0947 29.1151ZM24.0453 14.8379L24.5762 14.9859L24.5781 14.9836L24.0453 14.8379ZM27.4387 12.8569L27.6999 13.162L27.7014 13.1616L27.4387 12.8569ZM52.022 5.79198L52.2848 6.09667L52.2855 6.09645L52.022 5.79198ZM60.187 6.50444L59.7724 6.74637L59.7728 6.74664L60.187 6.50444ZM78.7112 17.063L78.2969 17.3052L78.297 17.3052L78.7112 17.063ZM88.2132 29.1645L88.8015 29.1427L88.8015 29.1427L88.2132 29.1645ZM86.61 35.9931L86.0461 35.8939L86.046 35.8941L86.61 35.9931ZM81.9947 44.7584L81.4307 44.6594L81.4299 44.6609L81.9947 44.7584ZM80.836 45.2378C80.6076 45.3718 80.6106 45.5873 80.8426 45.7192C81.0747 45.851 81.448 45.8493 81.6764 45.7154L80.836 45.2378ZM80.8393 45.2359C80.5592 45.3977 80.2175 45.5206 79.8414 45.5897L80.1988 46.2384C80.7634 46.1347 81.2663 45.9521 81.6731 45.7173L80.8393 45.2359ZM79.8414 45.5897L64.6857 48.3732L65.0432 49.0218L80.1988 46.2384L79.8414 45.5897ZM64.6859 48.3731C60.4363 49.1524 56.6434 49.4731 53.078 49.3673L53.0174 50.0471C56.7525 50.1579 60.6884 49.8204 65.0429 49.0219L64.6859 48.3731ZM53.0777 49.3673C45.2341 49.1363 37.876 47.2774 32.3586 44.1302L31.5298 44.6144C37.2562 47.8808 44.8892 49.8077 53.0177 50.0471L53.0777 49.3673ZM32.3584 44.1301L13.8479 33.5793L13.0194 34.0637L31.53 44.6145L32.3584 44.1301ZM13.8478 33.5793C11.8966 32.4676 11.3992 30.7338 12.6259 29.2627L11.5635 28.9674C10.126 30.6914 10.6971 32.7406 13.0195 34.0638L13.8478 33.5793ZM12.6255 29.2632L24.5761 14.9859L23.5145 14.6898L11.5639 28.967L12.6255 29.2632ZM24.5781 14.9836C25.2205 14.2011 26.333 13.5521 27.6999 13.162L27.1774 12.5518C25.5769 13.0086 24.2708 13.7685 23.5125 14.6921L24.5781 14.9836ZM27.7014 13.1616L52.2848 6.09667L51.7593 5.48729L27.1759 12.5522L27.7014 13.1616ZM52.2855 6.09645C54.8153 5.36683 57.8262 5.63465 59.7724 6.74637L60.6017 6.26251C58.2853 4.93925 54.7258 4.63169 51.7585 5.48751L52.2855 6.09645ZM59.7728 6.74664L78.2969 17.3052L79.1254 16.8208L60.6013 6.26224L59.7728 6.74664ZM78.297 17.3052C83.8091 20.4462 87.1217 24.6652 87.6248 29.1863L88.8015 29.1427C88.2802 24.4574 84.8462 20.0808 79.1253 16.8208L78.297 17.3052ZM87.6248 29.1863C87.8537 31.2489 87.3415 33.4411 86.0461 35.8939L87.174 36.0924C88.5015 33.5788 89.0413 31.3035 88.8015 29.1427L87.6248 29.1863ZM86.046 35.8941L81.4307 44.6594L82.5588 44.8574L87.1741 36.0921L86.046 35.8941ZM81.4299 44.6609C81.3169 44.8791 81.1114 45.0764 80.836 45.2378L81.6764 45.7154C82.0825 45.4771 82.3899 45.1837 82.5596 44.8559L81.4299 44.6609Z" fill="url(#paint4_linear_64_215)" mask="url(#path-7-outside-2_64_215)"/>
</g>
<g filter="url(#filter5_i_64_215)">
<path d="M45.6872 33.4979L45.6872 33.4981C45.6749 34.3777 46.9003 35.0763 48.4276 35.0617C48.4277 35.0617 48.4277 35.0617 48.4278 35.0617L58.7091 34.946C58.7091 34.946 58.7091 34.946 58.7091 34.946C59.4759 34.9372 60.1665 34.7499 60.6725 34.4548C61.1782 34.1599 61.4923 33.7583 61.4972 33.3157V33.3156L61.6454 21.0919L61.6454 21.0917C61.6602 20.2138 60.4324 19.5136 58.9022 19.5298C57.3759 19.5459 56.1267 20.2757 56.1143 21.1602L45.6872 33.4979ZM45.6872 33.4979C45.6968 32.6153 46.9458 31.8852 48.4753 31.8676L55.8714 31.7832L55.9842 31.7819L55.985 31.7167L56.1143 21.1602L45.6872 33.4979Z" fill="#26F172" stroke="url(#paint5_linear_64_215)" stroke-width="0.189394"/>
</g>
<defs>
<filter id="filter0_bd_64_215" x="0.996065" y="29.4093" width="107.507" height="81.4013" filterUnits="userSpaceOnUse" color-interpolation-filters="sRGB">
<feFlood flood-opacity="0" result="BackgroundImageFix"/>
<feGaussianBlur in="BackgroundImageFix" stdDeviation="2.16278"/>
<feComposite in2="SourceAlpha" operator="in" result="effect1_backgroundBlur_64_215"/>
<feColorMatrix in="SourceAlpha" type="matrix" values="0 0 0 0 0 0 0 0 0 0 0 0 0 0 0 0 0 0 127 0" result="hardAlpha"/>
<feOffset dy="18.0232"/>
<feGaussianBlur stdDeviation="7.20926"/>
<feComposite in2="hardAlpha" operator="out"/>
<feColorMatrix type="matrix" values="0 0 0 0 0.343982 0 0 0 0 1 0 0 0 0 0.448945 0 0 0 0.5 0"/>
<feBlend mode="normal" in2="effect1_backgroundBlur_64_215" result="effect2_dropShadow_64_215"/>
<feBlend mode="normal" in="SourceGraphic" in2="effect2_dropShadow_64_215" result="shape"/>
</filter>
<filter id="filter1_b_64_215" x="11.5006" y="24.6532" width="86.7282" height="53.7109" filterUnits="userSpaceOnUse" color-interpolation-filters="sRGB">
<feFlood flood-opacity="0" result="BackgroundImageFix"/>
<feGaussianBlur in="BackgroundImageFix" stdDeviation="2.16278"/>
<feComposite in2="SourceAlpha" operator="in" result="effect1_backgroundBlur_64_215"/>
<feBlend mode="normal" in="SourceGraphic" in2="effect1_backgroundBlur_64_215" result="shape"/>
</filter>
<filter id="filter2_d_64_215" x="12.2689" y="27.9186" width="80.629" height="37.3608" filterUnits="userSpaceOnUse" color-interpolation-filters="sRGB">
<feFlood flood-opacity="0" result="BackgroundImageFix"/>
<feColorMatrix in="SourceAlpha" type="matrix" values="0 0 0 0 0 0 0 0 0 0 0 0 0 0 0 0 0 0 127 0" result="hardAlpha"/>
<feOffset dy="5.4555"/>
<feGaussianBlur stdDeviation="3.53003"/>
<feComposite in2="hardAlpha" operator="out"/>
<feColorMatrix type="matrix" values="0 0 0 0 0 0 0 0 0 0.824769 0 0 0 0 0.300654 0 0 0 1 0"/>
<feBlend mode="normal" in2="BackgroundImageFix" result="effect1_dropShadow_64_215"/>
<feBlend mode="normal" in="SourceGraphic" in2="effect1_dropShadow_64_215" result="shape"/>
</filter>
<filter id="filter3_b_64_215" x="7.1587" y="6.5548" width="85.0882" height="51.0523" filterUnits="userSpaceOnUse" color-interpolation-filters="sRGB">
<feFlood flood-opacity="0" result="BackgroundImageFix"/>
<feGaussianBlur in="BackgroundImageFix" stdDeviation="1.60456"/>
<feComposite in2="SourceAlpha" operator="in" result="effect1_backgroundBlur_64_215"/>
<feBlend mode="normal" in="SourceGraphic" in2="effect1_backgroundBlur_64_215" result="shape"/>
</filter>
<filter id="filter4_b_64_215" x="4.36147" y="-1.41042" width="90.9136" height="57.8963" filterUnits="userSpaceOnUse" color-interpolation-filters="sRGB">
<feFlood flood-opacity="0" result="BackgroundImageFix"/>
<feGaussianBlur in="BackgroundImageFix" stdDeviation="3.20912"/>
<feComposite in2="SourceAlpha" operator="in" result="effect1_backgroundBlur_64_215"/>
<feBlend mode="normal" in="SourceGraphic" in2="effect1_backgroundBlur_64_215" result="shape"/>
</filter>
<filter id="filter5_i_64_215" x="45.5711" y="19.4626" width="16.1904" height="16.0293" filterUnits="userSpaceOnUse" color-interpolation-filters="sRGB">
<feFlood flood-opacity="0" result="BackgroundImageFix"/>
<feBlend mode="normal" in="SourceGraphic" in2="BackgroundImageFix" result="shape"/>
<feColorMatrix in="SourceAlpha" type="matrix" values="0 0 0 0 0 0 0 0 0 0 0 0 0 0 0 0 0 0 127 0" result="hardAlpha"/>
<feOffset dy="0.843998"/>
<feGaussianBlur stdDeviation="0.181527"/>
<feComposite in2="hardAlpha" operator="arithmetic" k2="-1" k3="1"/>
<feColorMatrix type="matrix" values="0 0 0 0 1 0 0 0 0 1 0 0 0 0 1 0 0 0 1 0"/>
<feBlend mode="normal" in2="shape" result="effect1_innerShadow_64_215"/>
</filter>
<linearGradient id="paint0_linear_64_215" x1="21.069" y1="55.0991" x2="95.3812" y2="58.9414" gradientUnits="userSpaceOnUse">
<stop stop-color="white" stop-opacity="0.25"/>
<stop offset="1" stop-color="white" stop-opacity="0"/>
</linearGradient>
<linearGradient id="paint1_linear_64_215" x1="30.625" y1="37.5819" x2="58.3402" y2="85.5903" gradientUnits="userSpaceOnUse">
<stop stop-color="#24EF7F"/>
<stop offset="1" stop-color="#26F16D"/>
</linearGradient>
<linearGradient id="paint2_linear_64_215" x1="54.79" y1="47.9764" x2="57.1366" y2="76.0766" gradientUnits="userSpaceOnUse">
<stop stop-color="white" stop-opacity="0.43"/>
<stop offset="0.846595" stop-color="white"/>
<stop offset="1" stop-color="white" stop-opacity="0"/>
</linearGradient>
<linearGradient id="paint3_linear_64_215" x1="16.0223" y1="31.1281" x2="90.3344" y2="34.9705" gradientUnits="userSpaceOnUse">
<stop stop-color="white" stop-opacity="0.25"/>
<stop offset="1" stop-color="white" stop-opacity="0"/>
</linearGradient>
<linearGradient id="paint4_linear_64_215" x1="63.1337" y1="51.3458" x2="67.7638" y2="12.53" gradientUnits="userSpaceOnUse">
<stop stop-color="white" stop-opacity="0.79"/>
<stop offset="1" stop-color="white" stop-opacity="0"/>
</linearGradient>
<linearGradient id="paint5_linear_64_215" x1="43.7862" y1="29.4734" x2="63.6421" y2="38.4567" gradientUnits="userSpaceOnUse">
<stop stop-color="white" stop-opacity="0.25"/>
<stop offset="1" stop-color="white" stop-opacity="0"/>
</linearGradient>
</defs>
</svg>
